<svg xmlns="http://www.w3.org/2000/svg" width="1040" height="680" viewBox="0 0 1040 680">
<rect width="100%" height="100%" fill="#ffffff" />
<text x="520.0" y="38" text-anchor="middle" font-size="26" font-family="Georgia, serif" fill="#1f1f1f">Anode Overpotential vs Current Density</text>
<line x1="110.00" y1="70" x2="110.00" y2="590" stroke="#e3e3e3" stroke-width="1" />
<text x="110.00" y="616" text-anchor="middle" font-size="15" font-family="Arial, sans-serif" fill="#4b4b4b">0.000</text>
<line x1="288.00" y1="70" x2="288.00" y2="590" stroke="#e3e3e3" stroke-width="1" />
<text x="288.00" y="616" text-anchor="middle" font-size="15" font-family="Arial, sans-serif" fill="#4b4b4b">0.094</text>
<line x1="466.00" y1="70" x2="466.00" y2="590" stroke="#e3e3e3" stroke-width="1" />
<text x="466.00" y="616" text-anchor="middle" font-size="15" font-family="Arial, sans-serif" fill="#4b4b4b">0.187</text>
<line x1="644.00" y1="70" x2="644.00" y2="590" stroke="#e3e3e3" stroke-width="1" />
<text x="644.00" y="616" text-anchor="middle" font-size="15" font-family="Arial, sans-serif" fill="#4b4b4b">0.281</text>
<line x1="822.00" y1="70" x2="822.00" y2="590" stroke="#e3e3e3" stroke-width="1" />
<text x="822.00" y="616" text-anchor="middle" font-size="15" font-family="Arial, sans-serif" fill="#4b4b4b">0.374</text>
<line x1="1000.00" y1="70" x2="1000.00" y2="590" stroke="#e3e3e3" stroke-width="1" />
<text x="1000.00" y="616" text-anchor="middle" font-size="15" font-family="Arial, sans-serif" fill="#4b4b4b">0.468</text>
<line x1="110" y1="590.00" x2="1000" y2="590.00" stroke="#e3e3e3" stroke-width="1" />
<text x="94" y="595.00" text-anchor="end" font-size="15" font-family="Arial, sans-serif" fill="#4b4b4b">-0.062</text>
<line x1="110" y1="486.00" x2="1000" y2="486.00" stroke="#e3e3e3" stroke-width="1" />
<text x="94" y="491.00" text-anchor="end" font-size="15" font-family="Arial, sans-serif" fill="#4b4b4b">-0.029</text>
<line x1="110" y1="382.00" x2="1000" y2="382.00" stroke="#e3e3e3" stroke-width="1" />
<text x="94" y="387.00" text-anchor="end" font-size="15" font-family="Arial, sans-serif" fill="#4b4b4b">0.004</text>
<line x1="110" y1="278.00" x2="1000" y2="278.00" stroke="#e3e3e3" stroke-width="1" />
<text x="94" y="283.00" text-anchor="end" font-size="15" font-family="Arial, sans-serif" fill="#4b4b4b">0.037</text>
<line x1="110" y1="174.00" x2="1000" y2="174.00" stroke="#e3e3e3" stroke-width="1" />
<text x="94" y="179.00" text-anchor="end" font-size="15" font-family="Arial, sans-serif" fill="#4b4b4b">0.070</text>
<line x1="110" y1="70.00" x2="1000" y2="70.00" stroke="#e3e3e3" stroke-width="1" />
<text x="94" y="75.00" text-anchor="end" font-size="15" font-family="Arial, sans-serif" fill="#4b4b4b">0.102</text>
<line x1="110" y1="590" x2="1000" y2="590" stroke="#1f1f1f" stroke-width="2" />
<line x1="110" y1="70" x2="110" y2="590" stroke="#1f1f1f" stroke-width="2" />
<polyline fill="none" stroke="#1f4e79" stroke-width="3" stroke-linejoin="round" stroke-linecap="round" points="110.00,544.43 110.75,443.05 111.51,422.04 112.26,409.57 113.01,400.65 113.76,393.70 114.52,388.00 115.27,383.16 116.02,378.95 116.78,375.23 117.53,371.89 118.28,368.86 119.03,366.09 119.79,363.53 120.54,361.15 121.29,358.94 122.05,356.86 122.80,354.90 123.55,353.04 124.30,351.28 125.06,349.61 125.81,348.02 126.56,346.49 127.32,345.03 128.07,343.63 128.82,342.28 129.58,340.98 130.33,339.73 131.08,338.52 131.83,337.34 132.59,336.21 133.34,335.11 134.09,334.04 134.85,333.00 135.60,331.99 136.35,331.00 137.10,330.04 137.86,329.11 138.61,328.20 139.36,327.30 140.12,326.43 140.87,325.58 141.62,324.74 142.37,323.93 143.13,323.13 143.88,322.34 144.63,321.57 145.39,320.82 146.14,320.08 146.89,319.35 147.64,318.63 148.40,317.93 149.15,317.24 149.90,316.56 150.66,315.89 151.41,315.23 152.16,314.58 152.91,313.94 153.67,313.31 154.42,312.69 155.17,312.07 155.93,311.47 156.68,310.87 157.43,310.28 158.18,309.70 158.94,309.13 159.69,308.56 160.44,308.00 161.20,307.45 161.95,306.90 162.70,306.36 163.45,305.83 164.21,305.30 164.96,304.78 165.71,304.26 166.47,303.75 167.22,303.24 167.97,302.74 168.73,302.24 169.48,301.75 170.23,301.26 170.98,300.78 171.74,300.30 172.49,299.83 173.24,299.36 174.00,298.89 174.75,298.43 175.50,297.97 176.25,297.52 177.01,297.07 177.76,296.62 178.51,296.18 179.27,295.74 180.02,295.30 180.77,294.87 181.52,294.44 182.28,294.01 183.03,293.59 183.78,293.17 184.54,292.75 185.29,292.33 186.04,291.92 186.79,291.51 187.55,291.10 188.30,290.70 189.05,290.30 189.81,289.90 190.56,289.50 191.31,289.10 192.06,288.71 192.82,288.32 193.57,287.93 194.32,287.55 195.08,287.16 195.83,286.78 196.58,286.40 197.33,286.03 198.09,285.65 198.84,285.28 199.59,284.90 200.35,284.53 201.10,284.16 201.85,283.80 202.60,283.43 203.36,283.07 204.11,282.71 204.86,282.35 205.62,281.99 206.37,281.63 207.12,281.28 207.88,280.92 208.63,280.57 209.38,280.22 210.13,279.87 210.89,279.52 211.64,279.17 212.39,278.82 213.15,278.48 213.90,278.14 214.65,277.79 215.40,277.45 216.16,277.11 216.91,276.77 217.66,276.43 218.42,276.10 219.17,275.76 219.92,275.42 220.67,275.09 221.43,274.76 222.18,274.43 222.93,274.09 223.69,273.76 224.44,273.43 225.19,273.11 225.94,272.78 226.70,272.45 227.45,272.12 228.20,271.80 228.96,271.47 229.71,271.15 230.46,270.83 231.21,270.50 231.97,270.18 232.72,269.86 233.47,269.54 234.23,269.22 234.98,268.90 235.73,268.58 236.48,268.26 237.24,267.94 237.99,267.63 238.74,267.31 239.50,266.99 240.25,266.68 241.00,266.36 241.76,266.05 242.51,265.73 243.26,265.42 244.01,265.10 244.77,264.79 245.52,264.48 246.27,264.16 247.03,263.85 247.78,263.54 248.53,263.23 249.28,262.91 250.04,262.60 250.79,262.29 251.54,261.98 252.30,261.67 253.05,261.36 253.80,261.05 254.55,260.74 255.31,260.43 256.06,260.12 256.81,259.81 257.57,259.49 258.32,259.18 259.07,258.88 259.82,258.57 260.58,258.26 261.33,257.95 262.08,257.64 262.84,257.33 263.59,257.02 264.34,256.71 265.09,256.40 265.85,256.09 266.60,255.77 267.35,255.46 268.11,255.15 268.86,254.84 269.61,254.53 270.36,254.22 271.12,253.91 271.87,253.60 272.62,253.29 273.38,252.98 274.13,252.66 274.88,252.35 275.63,252.04 276.39,251.72 277.14,251.41 277.89,251.10 278.65,250.78 279.40,250.47 280.15,250.15 280.91,249.84 281.66,249.52 282.41,249.21 283.16,248.89 283.92,248.57 284.67,248.26 285.42,247.94 286.18,247.62 286.93,247.30 287.68,246.98 288.43,246.66 289.19,246.34 289.94,246.02 290.69,245.70 291.45,245.37 292.20,245.05 292.95,244.73 293.70,244.40 294.46,244.08 295.21,243.75 295.96,243.42 296.72,243.09 297.47,242.77 298.22,242.44 298.97,242.11 299.73,241.77 300.48,241.44 301.23,241.11 301.99,240.77 302.74,240.44 303.49,240.10 304.24,239.77 305.00,239.43 305.75,239.09 306.50,238.75 307.26,238.41 308.01,238.06 308.76,237.72 309.51,237.38 310.27,237.03 311.02,236.68 311.77,236.33 312.53,235.98 313.28,235.63 314.03,235.28 314.79,234.92 315.54,234.57 316.29,234.21 317.04,233.85 317.80,233.49 318.55,233.13 319.30,232.77 320.06,232.40 320.81,232.03 321.56,231.67 322.31,231.29 323.07,230.92 323.82,230.55 324.57,230.17 325.33,229.79 326.08,229.42 326.83,229.03 327.58,228.65 328.34,228.26 329.09,227.88 329.84,227.49 330.60,227.09 331.35,226.70 332.10,226.30 332.85,225.90 333.61,225.50 334.36,225.09 335.11,224.69 335.87,224.28 336.62,223.86 337.37,223.45 338.12,223.03 338.88,222.61 339.63,222.19 340.38,221.76 341.14,221.33 341.89,220.90 342.64,220.46 343.39,220.02 344.15,219.58 344.90,219.13 345.65,218.68 346.41,218.22 347.16,217.77 347.91,217.30 348.66,216.84 349.42,216.37 350.17,215.89 350.92,215.42 351.68,214.93 352.43,214.45 353.18,213.95 353.94,213.46 354.69,212.95 355.44,212.45 356.19,211.94 356.95,211.42 357.70,210.89 358.45,210.37 359.21,209.83 359.96,209.29 360.71,208.74 361.46,208.19 362.22,207.63 362.97,207.06 363.72,206.49 364.48,205.91 365.23,205.32 365.98,204.72 366.73,204.12 367.49,203.50 368.24,202.88 368.99,202.25 369.75,201.61 370.50,200.96 371.25,200.30 372.00,199.63 372.76,198.95 373.51,198.26 374.26,197.55 375.02,196.84 375.77,196.11 376.52,195.37 377.27,194.61 378.03,193.84 378.78,193.06 379.53,192.26 380.29,191.44 381.04,190.60 381.79,189.75 382.54,188.88 383.30,187.98 384.05,187.07 384.80,186.13 385.56,185.17 386.31,184.19 387.06,183.18 387.81,182.14 388.57,181.07 389.32,179.96 390.07,178.83 390.83,177.65 391.58,176.44 392.33,175.18 393.09,173.88 393.84,172.53 394.59,171.13 395.34,169.67 396.10,168.14 396.85,166.54 397.60,164.87 398.36,163.11 399.11,161.25 399.86,159.29 400.61,157.20 401.37,154.98 402.12,152.60 402.87,150.03 403.63,147.25 404.38,144.21 405.13,140.86 405.88,137.12 406.64,132.90 407.39,128.03 408.14,122.29 408.90,115.29 409.65,106.29 410.40,93.64" />
<polyline fill="none" stroke="#b5514a" stroke-width="3" stroke-linejoin="round" stroke-linecap="round" points="110.03,544.43 111.54,443.05 113.04,422.04 114.55,409.57 116.05,400.65 117.56,393.70 119.06,388.00 120.57,383.16 122.08,378.95 123.58,375.23 125.09,371.89 126.59,368.86 128.10,366.09 129.61,363.53 131.11,361.15 132.62,358.94 134.12,356.86 135.63,354.90 137.13,353.04 138.64,351.28 140.15,349.61 141.65,348.02 143.16,346.49 144.66,345.03 146.17,343.63 147.67,342.28 149.18,340.98 150.69,339.73 152.19,338.52 153.70,337.34 155.20,336.21 156.71,335.11 158.21,334.04 159.72,333.00 161.23,331.99 162.73,331.00 164.24,330.04 165.74,329.11 167.25,328.20 168.76,327.30 170.26,326.43 171.77,325.58 173.27,324.74 174.78,323.93 176.28,323.13 177.79,322.34 179.30,321.57 180.80,320.82 182.31,320.08 183.81,319.35 185.32,318.63 186.82,317.93 188.33,317.24 189.84,316.56 191.34,315.89 192.85,315.23 194.35,314.58 195.86,313.94 197.36,313.31 198.87,312.69 200.38,312.07 201.88,311.47 203.39,310.87 204.89,310.28 206.40,309.70 207.91,309.13 209.41,308.56 210.92,308.00 212.42,307.45 213.93,306.90 215.43,306.36 216.94,305.83 218.45,305.30 219.95,304.78 221.46,304.26 222.96,303.75 224.47,303.24 225.97,302.74 227.48,302.24 228.99,301.75 230.49,301.26 232.00,300.78 233.50,300.30 235.01,299.83 236.51,299.36 238.02,298.89 239.53,298.43 241.03,297.97 242.54,297.52 244.04,297.07 245.55,296.62 247.06,296.18 248.56,295.74 250.07,295.30 251.57,294.87 253.08,294.44 254.58,294.01 256.09,293.59 257.60,293.17 259.10,292.75 260.61,292.33 262.11,291.92 263.62,291.51 265.12,291.10 266.63,290.70 268.14,290.30 269.64,289.90 271.15,289.50 272.65,289.10 274.16,288.71 275.66,288.32 277.17,287.93 278.68,287.55 280.18,287.16 281.69,286.78 283.19,286.40 284.70,286.03 286.21,285.65 287.71,285.28 289.22,284.90 290.72,284.53 292.23,284.16 293.73,283.80 295.24,283.43 296.75,283.07 298.25,282.71 299.76,282.35 301.26,281.99 302.77,281.63 304.27,281.28 305.78,280.92 307.29,280.57 308.79,280.22 310.30,279.87 311.80,279.52 313.31,279.17 314.82,278.82 316.32,278.48 317.83,278.14 319.33,277.79 320.84,277.45 322.34,277.11 323.85,276.77 325.36,276.43 326.86,276.10 328.37,275.76 329.87,275.42 331.38,275.09 332.88,274.76 334.39,274.43 335.90,274.09 337.40,273.76 338.91,273.43 340.41,273.11 341.92,272.78 343.42,272.45 344.93,272.12 346.44,271.80 347.94,271.47 349.45,271.15 350.95,270.83 352.46,270.50 353.97,270.18 355.47,269.86 356.98,269.54 358.48,269.22 359.99,268.90 361.49,268.58 363.00,268.26 364.51,267.94 366.01,267.63 367.52,267.31 369.02,266.99 370.53,266.68 372.03,266.36 373.54,266.05 375.05,265.73 376.55,265.42 378.06,265.10 379.56,264.79 381.07,264.48 382.57,264.16 384.08,263.85 385.59,263.54 387.09,263.23 388.60,262.91 390.10,262.60 391.61,262.29 393.12,261.98 394.62,261.67 396.13,261.36 397.63,261.05 399.14,260.74 400.64,260.43 402.15,260.12 403.66,259.81 405.16,259.49 406.67,259.18 408.17,258.88 409.68,258.57 411.18,258.26 412.69,257.95 414.20,257.64 415.70,257.33 417.21,257.02 418.71,256.71 420.22,256.40 421.72,256.09 423.23,255.77 424.74,255.46 426.24,255.15 427.75,254.84 429.25,254.53 430.76,254.22 432.27,253.91 433.77,253.60 435.28,253.29 436.78,252.98 438.29,252.66 439.79,252.35 441.30,252.04 442.81,251.72 444.31,251.41 445.82,251.10 447.32,250.78 448.83,250.47 450.33,250.15 451.84,249.84 453.35,249.52 454.85,249.21 456.36,248.89 457.86,248.57 459.37,248.26 460.87,247.94 462.38,247.62 463.89,247.30 465.39,246.98 466.90,246.66 468.40,246.34 469.91,246.02 471.42,245.70 472.92,245.37 474.43,245.05 475.93,244.73 477.44,244.40 478.94,244.08 480.45,243.75 481.96,243.42 483.46,243.09 484.97,242.77 486.47,242.44 487.98,242.11 489.48,241.77 490.99,241.44 492.50,241.11 494.00,240.77 495.51,240.44 497.01,240.10 498.52,239.77 500.03,239.43 501.53,239.09 503.04,238.75 504.54,238.41 506.05,238.06 507.55,237.72 509.06,237.38 510.57,237.03 512.07,236.68 513.58,236.33 515.08,235.98 516.59,235.63 518.09,235.28 519.60,234.92 521.11,234.57 522.61,234.21 524.12,233.85 525.62,233.49 527.13,233.13 528.63,232.77 530.14,232.40 531.65,232.03 533.15,231.67 534.66,231.29 536.16,230.92 537.67,230.55 539.18,230.17 540.68,229.79 542.19,229.42 543.69,229.03 545.20,228.65 546.70,228.26 548.21,227.88 549.72,227.49 551.22,227.09 552.73,226.70 554.23,226.30 555.74,225.90 557.24,225.50 558.75,225.09 560.26,224.69 561.76,224.28 563.27,223.86 564.77,223.45 566.28,223.03 567.78,222.61 569.29,222.19 570.80,221.76 572.30,221.33 573.81,220.90 575.31,220.46 576.82,220.02 578.33,219.58 579.83,219.13 581.34,218.68 582.84,218.22 584.35,217.77 585.85,217.30 587.36,216.84 588.87,216.37 590.37,215.89 591.88,215.42 593.38,214.93 594.89,214.45 596.39,213.95 597.90,213.46 599.41,212.95 600.91,212.45 602.42,211.94 603.92,211.42 605.43,210.89 606.93,210.37 608.44,209.83 609.95,209.29 611.45,208.74 612.96,208.19 614.46,207.63 615.97,207.06 617.48,206.49 618.98,205.91 620.49,205.32 621.99,204.72 623.50,204.12 625.00,203.50 626.51,202.88 628.02,202.25 629.52,201.61 631.03,200.96 632.53,200.30 634.04,199.63 635.54,198.95 637.05,198.26 638.56,197.55 640.06,196.84 641.57,196.11 643.07,195.37 644.58,194.61 646.08,193.84 647.59,193.06 649.10,192.26 650.60,191.44 652.11,190.60 653.61,189.75 655.12,188.88 656.63,187.98 658.13,187.07 659.64,186.13 661.14,185.17 662.65,184.19 664.15,183.18 665.66,182.14 667.17,181.07 668.67,179.96 670.18,178.83 671.68,177.65 673.19,176.44 674.69,175.18 676.20,173.88 677.71,172.53 679.21,171.13 680.72,169.67 682.22,168.14 683.73,166.54 685.24,164.87 686.74,163.11 688.25,161.25 689.75,159.29 691.26,157.20 692.76,154.98 694.27,152.60 695.78,150.03 697.28,147.25 698.79,144.21 700.29,140.86 701.80,137.12 703.30,132.90 704.81,128.03 706.32,122.29 707.82,115.29 709.33,106.29 710.83,93.64" />
<polyline fill="none" stroke="#4f7c43" stroke-width="3" stroke-linejoin="round" stroke-linecap="round" points="110.06,566.36 112.29,465.02 114.52,444.05 116.75,431.61 118.98,422.74 121.21,415.83 123.44,410.17 125.67,405.37 127.90,401.20 130.13,397.52 132.36,394.22 134.59,391.23 136.82,388.50 139.05,385.98 141.28,383.65 143.52,381.47 145.75,379.43 147.98,377.51 150.21,375.70 152.44,373.99 154.67,372.36 156.90,370.80 159.13,369.32 161.36,367.90 163.59,366.55 165.82,365.24 168.05,363.98 170.28,362.77 172.51,361.60 174.74,360.48 176.97,359.38 179.20,358.33 181.43,357.30 183.66,356.31 185.89,355.34 188.12,354.40 190.35,353.49 192.58,352.60 194.82,351.73 197.05,350.88 199.28,350.06 201.51,349.25 203.74,348.46 205.97,347.69 208.20,346.94 210.43,346.20 212.66,345.48 214.89,344.77 217.12,344.07 219.35,343.39 221.58,342.72 223.81,342.07 226.04,341.43 228.27,340.79 230.50,340.17 232.73,339.56 234.96,338.96 237.19,338.37 239.42,337.79 241.65,337.22 243.88,336.65 246.12,336.10 248.35,335.55 250.58,335.01 252.81,334.48 255.04,333.96 257.27,333.45 259.50,332.94 261.73,332.43 263.96,331.94 266.19,331.45 268.42,330.97 270.65,330.49 272.88,330.02 275.11,329.56 277.34,329.10 279.57,328.64 281.80,328.20 284.03,327.75 286.26,327.32 288.49,326.88 290.72,326.45 292.95,326.03 295.18,325.61 297.41,325.20 299.65,324.79 301.88,324.38 304.11,323.98 306.34,323.58 308.57,323.19 310.80,322.80 313.03,322.41 315.26,322.03 317.49,321.65 319.72,321.27 321.95,320.90 324.18,320.53 326.41,320.17 328.64,319.81 330.87,319.45 333.10,319.09 335.33,318.74 337.56,318.39 339.79,318.04 342.02,317.70 344.25,317.36 346.48,317.02 348.71,316.68 350.95,316.35 353.18,316.02 355.41,315.69 357.64,315.37 359.87,315.04 362.10,314.72 364.33,314.41 366.56,314.09 368.79,313.78 371.02,313.46 373.25,313.16 375.48,312.85 377.71,312.54 379.94,312.24 382.17,311.94 384.40,311.64 386.63,311.35 388.86,311.05 391.09,310.76 393.32,310.47 395.55,310.18 397.78,309.89 400.01,309.61 402.25,309.32 404.48,309.04 406.71,308.76 408.94,308.48 411.17,308.20 413.40,307.93 415.63,307.66 417.86,307.38 420.09,307.11 422.32,306.84 424.55,306.58 426.78,306.31 429.01,306.05 431.24,305.78 433.47,305.52 435.70,305.26 437.93,305.00 440.16,304.75 442.39,304.49 444.62,304.24 446.85,303.98 449.08,303.73 451.31,303.48 453.54,303.23 455.78,302.98 458.01,302.73 460.24,302.49 462.47,302.24 464.70,302.00 466.93,301.76 469.16,301.52 471.39,301.28 473.62,301.04 475.85,300.80 478.08,300.56 480.31,300.33 482.54,300.09 484.77,299.86 487.00,299.63 489.23,299.40 491.46,299.16 493.69,298.93 495.92,298.71 498.15,298.48 500.38,298.25 502.61,298.03 504.84,297.80 507.08,297.58 509.31,297.35 511.54,297.13 513.77,296.91 516.00,296.69 518.23,296.47 520.46,296.25 522.69,296.03 524.92,295.82 527.15,295.60 529.38,295.39 531.61,295.17 533.84,294.96 536.07,294.74 538.30,294.53 540.53,294.32 542.76,294.11 544.99,293.90 547.22,293.69 549.45,293.48 551.68,293.27 553.91,293.07 556.14,292.86 558.38,292.65 560.61,292.45 562.84,292.24 565.07,292.04 567.30,291.84 569.53,291.64 571.76,291.43 573.99,291.23 576.22,291.03 578.45,290.83 580.68,290.63 582.91,290.43 585.14,290.24 587.37,290.04 589.60,289.84 591.83,289.65 594.06,289.45 596.29,289.26 598.52,289.06 600.75,288.87 602.98,288.67 605.21,288.48 607.44,288.29 609.67,288.10 611.91,287.91 614.14,287.71 616.37,287.52 618.60,287.34 620.83,287.15 623.06,286.96 625.29,286.77 627.52,286.58 629.75,286.39 631.98,286.21 634.21,286.02 636.44,285.84 638.67,285.65 640.90,285.47 643.13,285.28 645.36,285.10 647.59,284.91 649.82,284.73 652.05,284.55 654.28,284.37 656.51,284.18 658.74,284.00 660.97,283.82 663.21,283.64 665.44,283.46 667.67,283.28 669.90,283.10 672.13,282.92 674.36,282.74 676.59,282.57 678.82,282.39 681.05,282.21 683.28,282.03 685.51,281.86 687.74,281.68 689.97,281.50 692.20,281.33 694.43,281.15 696.66,280.98 698.89,280.80 701.12,280.63 703.35,280.46 705.58,280.28 707.81,280.11 710.04,279.94 712.27,279.76 714.51,279.59 716.74,279.42 718.97,279.25 721.20,279.08 723.43,278.91 725.66,278.74 727.89,278.57 730.12,278.40 732.35,278.23 734.58,278.06 736.81,277.89 739.04,277.72 741.27,277.55 743.50,277.38 745.73,277.21 747.96,277.05 750.19,276.88 752.42,276.71 754.65,276.54 756.88,276.38 759.11,276.21 761.34,276.04 763.57,275.88 765.80,275.71 768.04,275.55 770.27,275.38 772.50,275.22 774.73,275.05 776.96,274.89 779.19,274.72 781.42,274.56 783.65,274.39 785.88,274.23 788.11,274.07 790.34,273.90 792.57,273.74 794.80,273.58 797.03,273.42 799.26,273.25 801.49,273.09 803.72,272.93 805.95,272.77 808.18,272.61 810.41,272.44 812.64,272.28 814.87,272.12 817.10,271.96 819.34,271.80 821.57,271.64 823.80,271.48 826.03,271.32 828.26,271.16 830.49,271.00 832.72,270.84 834.95,270.68 837.18,270.52 839.41,270.36 841.64,270.20 843.87,270.04 846.10,269.89 848.33,269.73 850.56,269.57 852.79,269.41 855.02,269.25 857.25,269.10 859.48,268.94 861.71,268.78 863.94,268.62 866.17,268.46 868.40,268.31 870.64,268.15 872.87,267.99 875.10,267.84 877.33,267.68 879.56,267.52 881.79,267.37 884.02,267.21 886.25,267.05 888.48,266.90 890.71,266.74 892.94,266.59 895.17,266.43 897.40,266.27 899.63,266.12 901.86,265.96 904.09,265.81 906.32,265.65 908.55,265.50 910.78,265.34 913.01,265.19 915.24,265.03 917.47,264.88 919.70,264.72 921.93,264.57 924.17,264.41 926.40,264.26 928.63,264.10 930.86,263.95 933.09,263.80 935.32,263.64 937.55,263.49 939.78,263.33 942.01,263.18 944.24,263.02 946.47,262.87 948.70,262.72 950.93,262.56 953.16,262.41 955.39,262.26 957.62,262.10 959.85,261.95 962.08,261.79 964.31,261.64 966.54,261.49 968.77,261.33 971.00,261.18 973.23,261.03 975.47,260.87 977.70,260.72 979.93,260.57 982.16,260.41 984.39,260.26 986.62,260.11 988.85,259.95 991.08,259.80 993.31,259.65 995.54,259.50 997.77,259.34 1000.00,259.19" />
<rect x="750" y="80" width="250" height="106" rx="8" fill="#ffffff" fill-opacity="0.92" stroke="#cccccc" />
<line x1="764" y1="102" x2="804" y2="102" stroke="#1f4e79" stroke-width="3" />
<text x="814" y="107" font-size="15" font-family="Arial, sans-serif" fill="#303030">0.5 M</text>
<line x1="764" y1="130" x2="804" y2="130" stroke="#b5514a" stroke-width="3" />
<text x="814" y="135" font-size="15" font-family="Arial, sans-serif" fill="#303030">1.0 M</text>
<line x1="764" y1="158" x2="804" y2="158" stroke="#4f7c43" stroke-width="3" />
<text x="814" y="163" font-size="15" font-family="Arial, sans-serif" fill="#303030">3.0 M</text>
<text x="520.0" y="656" text-anchor="middle" font-size="18" font-family="Arial, sans-serif" fill="#1f1f1f">Current density (A cm^-2)</text>
<text x="28" y="340.0" text-anchor="middle" font-size="18" font-family="Arial, sans-serif" fill="#1f1f1f" transform="rotate(-90 28 340.0)">Anode overpotential (V)</text>
</svg>