<svg xmlns="http://www.w3.org/2000/svg" width="1040" height="680" viewBox="0 0 1040 680">
<rect width="100%" height="100%" fill="#ffffff" />
<text x="520.0" y="38" text-anchor="middle" font-size="26" font-family="Georgia, serif" fill="#1f1f1f">Cathode Overpotential vs Current Density</text>
<line x1="110.00" y1="70" x2="110.00" y2="590" stroke="#e3e3e3" stroke-width="1" />
<text x="110.00" y="616" text-anchor="middle" font-size="15" font-family="Arial, sans-serif" fill="#4b4b4b">0.000</text>
<line x1="288.00" y1="70" x2="288.00" y2="590" stroke="#e3e3e3" stroke-width="1" />
<text x="288.00" y="616" text-anchor="middle" font-size="15" font-family="Arial, sans-serif" fill="#4b4b4b">0.094</text>
<line x1="466.00" y1="70" x2="466.00" y2="590" stroke="#e3e3e3" stroke-width="1" />
<text x="466.00" y="616" text-anchor="middle" font-size="15" font-family="Arial, sans-serif" fill="#4b4b4b">0.187</text>
<line x1="644.00" y1="70" x2="644.00" y2="590" stroke="#e3e3e3" stroke-width="1" />
<text x="644.00" y="616" text-anchor="middle" font-size="15" font-family="Arial, sans-serif" fill="#4b4b4b">0.281</text>
<line x1="822.00" y1="70" x2="822.00" y2="590" stroke="#e3e3e3" stroke-width="1" />
<text x="822.00" y="616" text-anchor="middle" font-size="15" font-family="Arial, sans-serif" fill="#4b4b4b">0.374</text>
<line x1="1000.00" y1="70" x2="1000.00" y2="590" stroke="#e3e3e3" stroke-width="1" />
<text x="1000.00" y="616" text-anchor="middle" font-size="15" font-family="Arial, sans-serif" fill="#4b4b4b">0.468</text>
<line x1="110" y1="590.00" x2="1000" y2="590.00" stroke="#e3e3e3" stroke-width="1" />
<text x="94" y="595.00" text-anchor="end" font-size="15" font-family="Arial, sans-serif" fill="#4b4b4b">0.068</text>
<line x1="110" y1="486.00" x2="1000" y2="486.00" stroke="#e3e3e3" stroke-width="1" />
<text x="94" y="491.00" text-anchor="end" font-size="15" font-family="Arial, sans-serif" fill="#4b4b4b">0.096</text>
<line x1="110" y1="382.00" x2="1000" y2="382.00" stroke="#e3e3e3" stroke-width="1" />
<text x="94" y="387.00" text-anchor="end" font-size="15" font-family="Arial, sans-serif" fill="#4b4b4b">0.123</text>
<line x1="110" y1="278.00" x2="1000" y2="278.00" stroke="#e3e3e3" stroke-width="1" />
<text x="94" y="283.00" text-anchor="end" font-size="15" font-family="Arial, sans-serif" fill="#4b4b4b">0.150</text>
<line x1="110" y1="174.00" x2="1000" y2="174.00" stroke="#e3e3e3" stroke-width="1" />
<text x="94" y="179.00" text-anchor="end" font-size="15" font-family="Arial, sans-serif" fill="#4b4b4b">0.177</text>
<line x1="110" y1="70.00" x2="1000" y2="70.00" stroke="#e3e3e3" stroke-width="1" />
<text x="94" y="75.00" text-anchor="end" font-size="15" font-family="Arial, sans-serif" fill="#4b4b4b">0.205</text>
<line x1="110" y1="590" x2="1000" y2="590" stroke="#1f1f1f" stroke-width="2" />
<line x1="110" y1="70" x2="110" y2="590" stroke="#1f1f1f" stroke-width="2" />
<polyline fill="none" stroke="#1f4e79" stroke-width="3" stroke-linejoin="round" stroke-linecap="round" points="110.00,566.36 110.75,566.11 111.51,565.86 112.26,565.61 113.01,565.37 113.76,565.12 114.52,564.87 115.27,564.63 116.02,564.38 116.78,564.14 117.53,563.90 118.28,563.66 119.03,563.41 119.79,563.17 120.54,562.93 121.29,562.70 122.05,562.46 122.80,562.22 123.55,561.98 124.30,561.75 125.06,561.51 125.81,561.28 126.56,561.05 127.32,560.82 128.07,560.58 128.82,560.35 129.58,560.12 130.33,559.89 131.08,559.67 131.83,559.44 132.59,559.21 133.34,558.98 134.09,558.76 134.85,558.53 135.60,558.31 136.35,558.09 137.10,557.86 137.86,557.64 138.61,557.42 139.36,557.20 140.12,556.98 140.87,556.76 141.62,556.54 142.37,556.32 143.13,556.10 143.88,555.89 144.63,555.67 145.39,555.46 146.14,555.24 146.89,555.03 147.64,554.81 148.40,554.60 149.15,554.39 149.90,554.18 150.66,553.97 151.41,553.76 152.16,553.55 152.91,553.34 153.67,553.13 154.42,552.92 155.17,552.71 155.93,552.50 156.68,552.30 157.43,552.09 158.18,551.89 158.94,551.68 159.69,551.48 160.44,551.28 161.20,551.07 161.95,550.87 162.70,550.67 163.45,550.47 164.21,550.27 164.96,550.07 165.71,549.87 166.47,549.67 167.22,549.47 167.97,549.27 168.73,549.07 169.48,548.88 170.23,548.68 170.98,548.48 171.74,548.29 172.49,548.09 173.24,547.90 174.00,547.71 174.75,547.51 175.50,547.32 176.25,547.13 177.01,546.93 177.76,546.74 178.51,546.55 179.27,546.36 180.02,546.17 180.77,545.98 181.52,545.79 182.28,545.60 183.03,545.42 183.78,545.23 184.54,545.04 185.29,544.86 186.04,544.67 186.79,544.48 187.55,544.30 188.30,544.11 189.05,543.93 189.81,543.74 190.56,543.56 191.31,543.38 192.06,543.20 192.82,543.01 193.57,542.83 194.32,542.65 195.08,542.47 195.83,542.29 196.58,542.11 197.33,541.93 198.09,541.75 198.84,541.57 199.59,541.39 200.35,541.21 201.10,541.04 201.85,540.86 202.60,540.68 203.36,540.51 204.11,540.33 204.86,540.15 205.62,539.98 206.37,539.80 207.12,539.63 207.88,539.45 208.63,539.28 209.38,539.11 210.13,538.93 210.89,538.76 211.64,538.59 212.39,538.42 213.15,538.25 213.90,538.08 214.65,537.90 215.40,537.73 216.16,537.56 216.91,537.40 217.66,537.23 218.42,537.06 219.17,536.89 219.92,536.72 220.67,536.55 221.43,536.38 222.18,536.22 222.93,536.05 223.69,535.88 224.44,535.72 225.19,535.55 225.94,535.39 226.70,535.22 227.45,535.06 228.20,534.89 228.96,534.73 229.71,534.57 230.46,534.40 231.21,534.24 231.97,534.08 232.72,533.91 233.47,533.75 234.23,533.59 234.98,533.43 235.73,533.27 236.48,533.11 237.24,532.95 237.99,532.79 238.74,532.63 239.50,532.47 240.25,532.31 241.00,532.15 241.76,531.99 242.51,531.83 243.26,531.67 244.01,531.52 244.77,531.36 245.52,531.20 246.27,531.04 247.03,530.89 247.78,530.73 248.53,530.58 249.28,530.42 250.04,530.26 250.79,530.11 251.54,529.95 252.30,529.80 253.05,529.65 253.80,529.49 254.55,529.34 255.31,529.18 256.06,529.03 256.81,528.88 257.57,528.73 258.32,528.57 259.07,528.42 259.82,528.27 260.58,528.12 261.33,527.97 262.08,527.82 262.84,527.67 263.59,527.52 264.34,527.37 265.09,527.22 265.85,527.07 266.60,526.92 267.35,526.77 268.11,526.62 268.86,526.47 269.61,526.32 270.36,526.17 271.12,526.03 271.87,525.88 272.62,525.73 273.38,525.58 274.13,525.44 274.88,525.29 275.63,525.15 276.39,525.00 277.14,524.85 277.89,524.71 278.65,524.56 279.40,524.42 280.15,524.27 280.91,524.13 281.66,523.98 282.41,523.84 283.16,523.70 283.92,523.55 284.67,523.41 285.42,523.27 286.18,523.12 286.93,522.98 287.68,522.84 288.43,522.70 289.19,522.55 289.94,522.41 290.69,522.27 291.45,522.13 292.20,521.99 292.95,521.85 293.70,521.71 294.46,521.57 295.21,521.43 295.96,521.29 296.72,521.15 297.47,521.01 298.22,520.87 298.97,520.73 299.73,520.59 300.48,520.45 301.23,520.31 301.99,520.17 302.74,520.04 303.49,519.90 304.24,519.76 305.00,519.62 305.75,519.49 306.50,519.35 307.26,519.21 308.01,519.07 308.76,518.94 309.51,518.80 310.27,518.67 311.02,518.53 311.77,518.40 312.53,518.26 313.28,518.12 314.03,517.99 314.79,517.85 315.54,517.72 316.29,517.59 317.04,517.45 317.80,517.32 318.55,517.18 319.30,517.05 320.06,516.92 320.81,516.78 321.56,516.65 322.31,516.52 323.07,516.38 323.82,516.25 324.57,516.12 325.33,515.99 326.08,515.86 326.83,515.72 327.58,515.59 328.34,515.46 329.09,515.33 329.84,515.20 330.60,515.07 331.35,514.94 332.10,514.81 332.85,514.68 333.61,514.55 334.36,514.42 335.11,514.29 335.87,514.16 336.62,514.03 337.37,513.90 338.12,513.77 338.88,513.64 339.63,513.51 340.38,513.38 341.14,513.26 341.89,513.13 342.64,513.00 343.39,512.87 344.15,512.74 344.90,512.62 345.65,512.49 346.41,512.36 347.16,512.23 347.91,512.11 348.66,511.98 349.42,511.85 350.17,511.73 350.92,511.60 351.68,511.48 352.43,511.35 353.18,511.22 353.94,511.10 354.69,510.97 355.44,510.85 356.19,510.72 356.95,510.60 357.70,510.47 358.45,510.35 359.21,510.22 359.96,510.10 360.71,509.98 361.46,509.85 362.22,509.73 362.97,509.60 363.72,509.48 364.48,509.36 365.23,509.23 365.98,509.11 366.73,508.99 367.49,508.87 368.24,508.74 368.99,508.62 369.75,508.50 370.50,508.38 371.25,508.25 372.00,508.13 372.76,508.01 373.51,507.89 374.26,507.77 375.02,507.65 375.77,507.53 376.52,507.40 377.27,507.28 378.03,507.16 378.78,507.04 379.53,506.92 380.29,506.80 381.04,506.68 381.79,506.56 382.54,506.44 383.30,506.32 384.05,506.20 384.80,506.08 385.56,505.96 386.31,505.84 387.06,505.73 387.81,505.61 388.57,505.49 389.32,505.37 390.07,505.25 390.83,505.13 391.58,505.01 392.33,504.90 393.09,504.78 393.84,504.66 394.59,504.54 395.34,504.42 396.10,504.31 396.85,504.19 397.60,504.07 398.36,503.96 399.11,503.84 399.86,503.72 400.61,503.61 401.37,503.49 402.12,503.37 402.87,503.26 403.63,503.14 404.38,503.02 405.13,502.91 405.88,502.79 406.64,502.68 407.39,502.56 408.14,502.45 408.90,502.33 409.65,502.21 410.40,502.10" />
<polyline fill="none" stroke="#b5514a" stroke-width="3" stroke-linejoin="round" stroke-linecap="round" points="110.03,521.24 111.54,520.96 113.04,520.68 114.55,520.41 116.05,520.13 117.56,519.85 119.06,519.58 120.57,519.31 122.08,519.03 123.58,518.76 125.09,518.49 126.59,518.22 128.10,517.95 129.61,517.68 131.11,517.41 132.62,517.14 134.12,516.87 135.63,516.61 137.13,516.34 138.64,516.08 140.15,515.81 141.65,515.55 143.16,515.29 144.66,515.03 146.17,514.77 147.67,514.51 149.18,514.25 150.69,513.99 152.19,513.73 153.70,513.47 155.20,513.22 156.71,512.96 158.21,512.70 159.72,512.45 161.23,512.19 162.73,511.94 164.24,511.69 165.74,511.44 167.25,511.19 168.76,510.93 170.26,510.68 171.77,510.43 173.27,510.19 174.78,509.94 176.28,509.69 177.79,509.44 179.30,509.20 180.80,508.95 182.31,508.71 183.81,508.46 185.32,508.22 186.82,507.97 188.33,507.73 189.84,507.49 191.34,507.25 192.85,507.00 194.35,506.76 195.86,506.52 197.36,506.28 198.87,506.05 200.38,505.81 201.88,505.57 203.39,505.33 204.89,505.09 206.40,504.86 207.91,504.62 209.41,504.39 210.92,504.15 212.42,503.92 213.93,503.69 215.43,503.45 216.94,503.22 218.45,502.99 219.95,502.76 221.46,502.52 222.96,502.29 224.47,502.06 225.97,501.83 227.48,501.60 228.99,501.38 230.49,501.15 232.00,500.92 233.50,500.69 235.01,500.47 236.51,500.24 238.02,500.01 239.53,499.79 241.03,499.56 242.54,499.34 244.04,499.11 245.55,498.89 247.06,498.67 248.56,498.44 250.07,498.22 251.57,498.00 253.08,497.78 254.58,497.56 256.09,497.34 257.60,497.12 259.10,496.90 260.61,496.68 262.11,496.46 263.62,496.24 265.12,496.02 266.63,495.80 268.14,495.59 269.64,495.37 271.15,495.15 272.65,494.94 274.16,494.72 275.66,494.50 277.17,494.29 278.68,494.07 280.18,493.86 281.69,493.65 283.19,493.43 284.70,493.22 286.21,493.01 287.71,492.79 289.22,492.58 290.72,492.37 292.23,492.16 293.73,491.95 295.24,491.74 296.75,491.53 298.25,491.32 299.76,491.11 301.26,490.90 302.77,490.69 304.27,490.48 305.78,490.27 307.29,490.06 308.79,489.86 310.30,489.65 311.80,489.44 313.31,489.24 314.82,489.03 316.32,488.82 317.83,488.62 319.33,488.41 320.84,488.21 322.34,488.00 323.85,487.80 325.36,487.59 326.86,487.39 328.37,487.19 329.87,486.98 331.38,486.78 332.88,486.58 334.39,486.38 335.90,486.17 337.40,485.97 338.91,485.77 340.41,485.57 341.92,485.37 343.42,485.17 344.93,484.97 346.44,484.77 347.94,484.57 349.45,484.37 350.95,484.17 352.46,483.97 353.97,483.77 355.47,483.57 356.98,483.37 358.48,483.18 359.99,482.98 361.49,482.78 363.00,482.59 364.51,482.39 366.01,482.19 367.52,482.00 369.02,481.80 370.53,481.60 372.03,481.41 373.54,481.21 375.05,481.02 376.55,480.82 378.06,480.63 379.56,480.43 381.07,480.24 382.57,480.05 384.08,479.85 385.59,479.66 387.09,479.47 388.60,479.27 390.10,479.08 391.61,478.89 393.12,478.70 394.62,478.51 396.13,478.31 397.63,478.12 399.14,477.93 400.64,477.74 402.15,477.55 403.66,477.36 405.16,477.17 406.67,476.98 408.17,476.79 409.68,476.60 411.18,476.41 412.69,476.22 414.20,476.03 415.70,475.84 417.21,475.65 418.71,475.46 420.22,475.28 421.72,475.09 423.23,474.90 424.74,474.71 426.24,474.53 427.75,474.34 429.25,474.15 430.76,473.96 432.27,473.78 433.77,473.59 435.28,473.40 436.78,473.22 438.29,473.03 439.79,472.85 441.30,472.66 442.81,472.48 444.31,472.29 445.82,472.11 447.32,471.92 448.83,471.74 450.33,471.55 451.84,471.37 453.35,471.18 454.85,471.00 456.36,470.82 457.86,470.63 459.37,470.45 460.87,470.27 462.38,470.08 463.89,469.90 465.39,469.72 466.90,469.53 468.40,469.35 469.91,469.17 471.42,468.99 472.92,468.81 474.43,468.62 475.93,468.44 477.44,468.26 478.94,468.08 480.45,467.90 481.96,467.72 483.46,467.54 484.97,467.35 486.47,467.17 487.98,466.99 489.48,466.81 490.99,466.63 492.50,466.45 494.00,466.27 495.51,466.09 497.01,465.91 498.52,465.73 500.03,465.56 501.53,465.38 503.04,465.20 504.54,465.02 506.05,464.84 507.55,464.66 509.06,464.48 510.57,464.30 512.07,464.13 513.58,463.95 515.08,463.77 516.59,463.59 518.09,463.41 519.60,463.24 521.11,463.06 522.61,462.88 524.12,462.71 525.62,462.53 527.13,462.35 528.63,462.17 530.14,462.00 531.65,461.82 533.15,461.64 534.66,461.47 536.16,461.29 537.67,461.12 539.18,460.94 540.68,460.76 542.19,460.59 543.69,460.41 545.20,460.24 546.70,460.06 548.21,459.89 549.72,459.71 551.22,459.54 552.73,459.36 554.23,459.19 555.74,459.01 557.24,458.84 558.75,458.66 560.26,458.49 561.76,458.31 563.27,458.14 564.77,457.96 566.28,457.79 567.78,457.61 569.29,457.44 570.80,457.27 572.30,457.09 573.81,456.92 575.31,456.75 576.82,456.57 578.33,456.40 579.83,456.23 581.34,456.05 582.84,455.88 584.35,455.71 585.85,455.53 587.36,455.36 588.87,455.19 590.37,455.01 591.88,454.84 593.38,454.67 594.89,454.50 596.39,454.32 597.90,454.15 599.41,453.98 600.91,453.81 602.42,453.64 603.92,453.46 605.43,453.29 606.93,453.12 608.44,452.95 609.95,452.78 611.45,452.60 612.96,452.43 614.46,452.26 615.97,452.09 617.48,451.92 618.98,451.75 620.49,451.57 621.99,451.40 623.50,451.23 625.00,451.06 626.51,450.89 628.02,450.72 629.52,450.55 631.03,450.38 632.53,450.21 634.04,450.04 635.54,449.86 637.05,449.69 638.56,449.52 640.06,449.35 641.57,449.18 643.07,449.01 644.58,448.84 646.08,448.67 647.59,448.50 649.10,448.33 650.60,448.16 652.11,447.99 653.61,447.82 655.12,447.65 656.63,447.48 658.13,447.31 659.64,447.14 661.14,446.97 662.65,446.80 664.15,446.63 665.66,446.46 667.17,446.29 668.67,446.12 670.18,445.95 671.68,445.78 673.19,445.61 674.69,445.44 676.20,445.27 677.71,445.10 679.21,444.93 680.72,444.77 682.22,444.60 683.73,444.43 685.24,444.26 686.74,444.09 688.25,443.92 689.75,443.75 691.26,443.58 692.76,443.41 694.27,443.24 695.78,443.07 697.28,442.90 698.79,442.73 700.29,442.57 701.80,442.40 703.30,442.23 704.81,442.06 706.32,441.89 707.82,441.72 709.33,441.55 710.83,441.38" />
<polyline fill="none" stroke="#4f7c43" stroke-width="3" stroke-linejoin="round" stroke-linecap="round" points="110.06,425.21 112.29,424.95 114.52,424.70 116.75,424.45 118.98,424.19 121.21,423.94 123.44,423.68 125.67,423.43 127.90,423.18 130.13,422.92 132.36,422.67 134.59,422.41 136.82,422.16 139.05,421.90 141.28,421.65 143.52,421.39 145.75,421.14 147.98,420.88 150.21,420.63 152.44,420.37 154.67,420.12 156.90,419.86 159.13,419.60 161.36,419.35 163.59,419.09 165.82,418.83 168.05,418.58 170.28,418.32 172.51,418.06 174.74,417.80 176.97,417.55 179.20,417.29 181.43,417.03 183.66,416.77 185.89,416.51 188.12,416.25 190.35,415.99 192.58,415.73 194.82,415.47 197.05,415.21 199.28,414.95 201.51,414.69 203.74,414.43 205.97,414.17 208.20,413.91 210.43,413.65 212.66,413.39 214.89,413.13 217.12,412.86 219.35,412.60 221.58,412.34 223.81,412.08 226.04,411.81 228.27,411.55 230.50,411.29 232.73,411.02 234.96,410.76 237.19,410.49 239.42,410.23 241.65,409.96 243.88,409.70 246.12,409.43 248.35,409.16 250.58,408.90 252.81,408.63 255.04,408.36 257.27,408.10 259.50,407.83 261.73,407.56 263.96,407.29 266.19,407.02 268.42,406.75 270.65,406.48 272.88,406.21 275.11,405.94 277.34,405.67 279.57,405.40 281.80,405.13 284.03,404.86 286.26,404.59 288.49,404.32 290.72,404.04 292.95,403.77 295.18,403.50 297.41,403.22 299.65,402.95 301.88,402.67 304.11,402.40 306.34,402.12 308.57,401.85 310.80,401.57 313.03,401.29 315.26,401.02 317.49,400.74 319.72,400.46 321.95,400.18 324.18,399.90 326.41,399.62 328.64,399.34 330.87,399.06 333.10,398.78 335.33,398.50 337.56,398.22 339.79,397.94 342.02,397.66 344.25,397.37 346.48,397.09 348.71,396.80 350.95,396.52 353.18,396.24 355.41,395.95 357.64,395.66 359.87,395.38 362.10,395.09 364.33,394.80 366.56,394.51 368.79,394.22 371.02,393.94 373.25,393.65 375.48,393.36 377.71,393.06 379.94,392.77 382.17,392.48 384.40,392.19 386.63,391.89 388.86,391.60 391.09,391.31 393.32,391.01 395.55,390.72 397.78,390.42 400.01,390.12 402.25,389.82 404.48,389.53 406.71,389.23 408.94,388.93 411.17,388.63 413.40,388.33 415.63,388.03 417.86,387.72 420.09,387.42 422.32,387.12 424.55,386.81 426.78,386.51 429.01,386.20 431.24,385.90 433.47,385.59 435.70,385.28 437.93,384.97 440.16,384.66 442.39,384.35 444.62,384.04 446.85,383.73 449.08,383.42 451.31,383.11 453.54,382.79 455.78,382.48 458.01,382.16 460.24,381.85 462.47,381.53 464.70,381.21 466.93,380.89 469.16,380.57 471.39,380.25 473.62,379.93 475.85,379.61 478.08,379.29 480.31,378.96 482.54,378.64 484.77,378.31 487.00,377.99 489.23,377.66 491.46,377.33 493.69,377.00 495.92,376.67 498.15,376.34 500.38,376.01 502.61,375.67 504.84,375.34 507.08,375.00 509.31,374.67 511.54,374.33 513.77,373.99 516.00,373.65 518.23,373.31 520.46,372.97 522.69,372.63 524.92,372.29 527.15,371.94 529.38,371.60 531.61,371.25 533.84,370.90 536.07,370.55 538.30,370.20 540.53,369.85 542.76,369.50 544.99,369.14 547.22,368.79 549.45,368.43 551.68,368.07 553.91,367.71 556.14,367.35 558.38,366.99 560.61,366.63 562.84,366.27 565.07,365.90 567.30,365.53 569.53,365.17 571.76,364.80 573.99,364.43 576.22,364.05 578.45,363.68 580.68,363.31 582.91,362.93 585.14,362.55 587.37,362.17 589.60,361.79 591.83,361.41 594.06,361.02 596.29,360.64 598.52,360.25 600.75,359.86 602.98,359.47 605.21,359.08 607.44,358.69 609.67,358.29 611.91,357.90 614.14,357.50 616.37,357.10 618.60,356.69 620.83,356.29 623.06,355.88 625.29,355.48 627.52,355.07 629.75,354.66 631.98,354.24 634.21,353.83 636.44,353.41 638.67,352.99 640.90,352.57 643.13,352.15 645.36,351.72 647.59,351.30 649.82,350.87 652.05,350.44 654.28,350.00 656.51,349.57 658.74,349.13 660.97,348.69 663.21,348.25 665.44,347.80 667.67,347.35 669.90,346.90 672.13,346.45 674.36,346.00 676.59,345.54 678.82,345.08 681.05,344.62 683.28,344.16 685.51,343.69 687.74,343.22 689.97,342.75 692.20,342.27 694.43,341.79 696.66,341.31 698.89,340.83 701.12,340.34 703.35,339.85 705.58,339.36 707.81,338.87 710.04,338.37 712.27,337.87 714.51,337.36 716.74,336.85 718.97,336.34 721.20,335.83 723.43,335.31 725.66,334.79 727.89,334.26 730.12,333.73 732.35,333.20 734.58,332.67 736.81,332.13 739.04,331.58 741.27,331.04 743.50,330.48 745.73,329.93 747.96,329.37 750.19,328.81 752.42,328.24 754.65,327.67 756.88,327.09 759.11,326.51 761.34,325.92 763.57,325.33 765.80,324.74 768.04,324.14 770.27,323.53 772.50,322.92 774.73,322.31 776.96,321.69 779.19,321.06 781.42,320.43 783.65,319.79 785.88,319.15 788.11,318.50 790.34,317.85 792.57,317.19 794.80,316.52 797.03,315.85 799.26,315.17 801.49,314.49 803.72,313.79 805.95,313.10 808.18,312.39 810.41,311.68 812.64,310.96 814.87,310.23 817.10,309.49 819.34,308.75 821.57,308.00 823.80,307.24 826.03,306.47 828.26,305.69 830.49,304.90 832.72,304.11 834.95,303.30 837.18,302.49 839.41,301.67 841.64,300.83 843.87,299.99 846.10,299.13 848.33,298.26 850.56,297.38 852.79,296.49 855.02,295.59 857.25,294.68 859.48,293.75 861.71,292.81 863.94,291.85 866.17,290.88 868.40,289.90 870.64,288.90 872.87,287.89 875.10,286.86 877.33,285.81 879.56,284.75 881.79,283.67 884.02,282.57 886.25,281.45 888.48,280.31 890.71,279.15 892.94,277.97 895.17,276.76 897.40,275.53 899.63,274.28 901.86,273.00 904.09,271.70 906.32,270.37 908.55,269.01 910.78,267.61 913.01,266.19 915.24,264.73 917.47,263.24 919.70,261.71 921.93,260.15 924.17,258.54 926.40,256.89 928.63,255.19 930.86,253.44 933.09,251.64 935.32,249.79 937.55,247.88 939.78,245.90 942.01,243.86 944.24,241.75 946.47,239.56 948.70,237.28 950.93,234.92 953.16,232.46 955.39,229.89 957.62,227.20 959.85,224.39 962.08,221.44 964.31,218.33 966.54,215.04 968.77,211.57 971.00,207.87 973.23,203.92 975.47,199.68 977.70,195.11 979.93,190.14 982.16,184.71 984.39,178.71 986.62,172.02 988.85,164.44 991.08,155.69 993.31,145.37 995.54,132.75 997.77,116.50 1000.00,93.64" />
<rect x="750" y="80" width="250" height="106" rx="8" fill="#ffffff" fill-opacity="0.92" stroke="#cccccc" />
<line x1="764" y1="102" x2="804" y2="102" stroke="#1f4e79" stroke-width="3" />
<text x="814" y="107" font-size="15" font-family="Arial, sans-serif" fill="#303030">0.5 M</text>
<line x1="764" y1="130" x2="804" y2="130" stroke="#b5514a" stroke-width="3" />
<text x="814" y="135" font-size="15" font-family="Arial, sans-serif" fill="#303030">1.0 M</text>
<line x1="764" y1="158" x2="804" y2="158" stroke="#4f7c43" stroke-width="3" />
<text x="814" y="163" font-size="15" font-family="Arial, sans-serif" fill="#303030">3.0 M</text>
<text x="520.0" y="656" text-anchor="middle" font-size="18" font-family="Arial, sans-serif" fill="#1f1f1f">Current density (A cm^-2)</text>
<text x="28" y="340.0" text-anchor="middle" font-size="18" font-family="Arial, sans-serif" fill="#1f1f1f" transform="rotate(-90 28 340.0)">Cathode overpotential (V)</text>
</svg>