<svg xmlns="http://www.w3.org/2000/svg" width="1040" height="680" viewBox="0 0 1040 680">
<rect width="100%" height="100%" fill="#ffffff" />
<text x="520.0" y="38" text-anchor="middle" font-size="26" font-family="Georgia, serif" fill="#1f1f1f">DMFC Efficiency vs Current Density</text>
<line x1="110.00" y1="70" x2="110.00" y2="590" stroke="#e3e3e3" stroke-width="1" />
<text x="110.00" y="616" text-anchor="middle" font-size="15" font-family="Arial, sans-serif" fill="#4b4b4b">0.000</text>
<line x1="288.00" y1="70" x2="288.00" y2="590" stroke="#e3e3e3" stroke-width="1" />
<text x="288.00" y="616" text-anchor="middle" font-size="15" font-family="Arial, sans-serif" fill="#4b4b4b">0.094</text>
<line x1="466.00" y1="70" x2="466.00" y2="590" stroke="#e3e3e3" stroke-width="1" />
<text x="466.00" y="616" text-anchor="middle" font-size="15" font-family="Arial, sans-serif" fill="#4b4b4b">0.187</text>
<line x1="644.00" y1="70" x2="644.00" y2="590" stroke="#e3e3e3" stroke-width="1" />
<text x="644.00" y="616" text-anchor="middle" font-size="15" font-family="Arial, sans-serif" fill="#4b4b4b">0.281</text>
<line x1="822.00" y1="70" x2="822.00" y2="590" stroke="#e3e3e3" stroke-width="1" />
<text x="822.00" y="616" text-anchor="middle" font-size="15" font-family="Arial, sans-serif" fill="#4b4b4b">0.374</text>
<line x1="1000.00" y1="70" x2="1000.00" y2="590" stroke="#e3e3e3" stroke-width="1" />
<text x="1000.00" y="616" text-anchor="middle" font-size="15" font-family="Arial, sans-serif" fill="#4b4b4b">0.468</text>
<line x1="110" y1="590.00" x2="1000" y2="590.00" stroke="#e3e3e3" stroke-width="1" />
<text x="94" y="595.00" text-anchor="end" font-size="15" font-family="Arial, sans-serif" fill="#4b4b4b">-0.043</text>
<line x1="110" y1="486.00" x2="1000" y2="486.00" stroke="#e3e3e3" stroke-width="1" />
<text x="94" y="491.00" text-anchor="end" font-size="15" font-family="Arial, sans-serif" fill="#4b4b4b">0.148</text>
<line x1="110" y1="382.00" x2="1000" y2="382.00" stroke="#e3e3e3" stroke-width="1" />
<text x="94" y="387.00" text-anchor="end" font-size="15" font-family="Arial, sans-serif" fill="#4b4b4b">0.340</text>
<line x1="110" y1="278.00" x2="1000" y2="278.00" stroke="#e3e3e3" stroke-width="1" />
<text x="94" y="283.00" text-anchor="end" font-size="15" font-family="Arial, sans-serif" fill="#4b4b4b">0.532</text>
<line x1="110" y1="174.00" x2="1000" y2="174.00" stroke="#e3e3e3" stroke-width="1" />
<text x="94" y="179.00" text-anchor="end" font-size="15" font-family="Arial, sans-serif" fill="#4b4b4b">0.723</text>
<line x1="110" y1="70.00" x2="1000" y2="70.00" stroke="#e3e3e3" stroke-width="1" />
<text x="94" y="75.00" text-anchor="end" font-size="15" font-family="Arial, sans-serif" fill="#4b4b4b">0.915</text>
<line x1="110" y1="590" x2="1000" y2="590" stroke="#1f1f1f" stroke-width="2" />
<line x1="110" y1="70" x2="110" y2="590" stroke="#1f1f1f" stroke-width="2" />
<polyline fill="none" stroke="#1f4e79" stroke-width="3" stroke-linejoin="round" stroke-linecap="round" points="110.00,566.30 110.75,563.13 111.51,560.03 112.26,556.97 113.01,553.94 113.76,550.95 114.52,547.98 115.27,545.04 116.02,542.14 116.78,539.25 117.53,536.40 118.28,533.57 119.03,530.77 119.79,527.99 120.54,525.23 121.29,522.50 122.05,519.79 122.80,517.11 123.55,514.45 124.30,511.81 125.06,509.19 125.81,506.60 126.56,504.02 127.32,501.47 128.07,498.94 128.82,496.43 129.58,493.94 130.33,491.47 131.08,489.02 131.83,486.59 132.59,484.18 133.34,481.79 134.09,479.41 134.85,477.06 135.60,474.72 136.35,472.41 137.10,470.11 137.86,467.83 138.61,465.56 139.36,463.32 140.12,461.09 140.87,458.87 141.62,456.68 142.37,454.50 143.13,452.34 143.88,450.19 144.63,448.06 145.39,445.95 146.14,443.85 146.89,441.76 147.64,439.70 148.40,437.64 149.15,435.61 149.90,433.59 150.66,431.58 151.41,429.59 152.16,427.61 152.91,425.64 153.67,423.69 154.42,421.76 155.17,419.84 155.93,417.93 156.68,416.03 157.43,414.15 158.18,412.28 158.94,410.43 159.69,408.59 160.44,406.76 161.20,404.94 161.95,403.14 162.70,401.35 163.45,399.57 164.21,397.81 164.96,396.05 165.71,394.31 166.47,392.58 167.22,390.86 167.97,389.16 168.73,387.46 169.48,385.78 170.23,384.11 170.98,382.45 171.74,380.80 172.49,379.16 173.24,377.53 174.00,375.92 174.75,374.31 175.50,372.71 176.25,371.13 177.01,369.56 177.76,367.99 178.51,366.44 179.27,364.90 180.02,363.36 180.77,361.84 181.52,360.33 182.28,358.83 183.03,357.33 183.78,355.85 184.54,354.37 185.29,352.91 186.04,351.45 186.79,350.01 187.55,348.57 188.30,347.14 189.05,345.73 189.81,344.32 190.56,342.92 191.31,341.52 192.06,340.14 192.82,338.77 193.57,337.40 194.32,336.04 195.08,334.69 195.83,333.35 196.58,332.02 197.33,330.70 198.09,329.38 198.84,328.08 199.59,326.78 200.35,325.49 201.10,324.20 201.85,322.93 202.60,321.66 203.36,320.40 204.11,319.15 204.86,317.90 205.62,316.66 206.37,315.44 207.12,314.21 207.88,313.00 208.63,311.79 209.38,310.59 210.13,309.40 210.89,308.21 211.64,307.03 212.39,305.86 213.15,304.69 213.90,303.54 214.65,302.39 215.40,301.24 216.16,300.10 216.91,298.97 217.66,297.85 218.42,296.73 219.17,295.62 219.92,294.51 220.67,293.42 221.43,292.32 222.18,291.24 222.93,290.16 223.69,289.09 224.44,288.02 225.19,286.96 225.94,285.91 226.70,284.86 227.45,283.81 228.20,282.78 228.96,281.75 229.71,280.72 230.46,279.70 231.21,278.69 231.97,277.68 232.72,276.68 233.47,275.69 234.23,274.70 234.98,273.71 235.73,272.73 236.48,271.76 237.24,270.79 237.99,269.83 238.74,268.87 239.50,267.92 240.25,266.97 241.00,266.03 241.76,265.10 242.51,264.17 243.26,263.24 244.01,262.32 244.77,261.40 245.52,260.49 246.27,259.59 247.03,258.69 247.78,257.79 248.53,256.90 249.28,256.02 250.04,255.14 250.79,254.26 251.54,253.39 252.30,252.52 253.05,251.66 253.80,250.81 254.55,249.95 255.31,249.11 256.06,248.26 256.81,247.43 257.57,246.59 258.32,245.76 259.07,244.94 259.82,244.12 260.58,243.30 261.33,242.49 262.08,241.68 262.84,240.88 263.59,240.08 264.34,239.29 265.09,238.50 265.85,237.71 266.60,236.93 267.35,236.16 268.11,235.38 268.86,234.62 269.61,233.85 270.36,233.09 271.12,232.33 271.87,231.58 272.62,230.83 273.38,230.09 274.13,229.35 274.88,228.61 275.63,227.88 276.39,227.15 277.14,226.43 277.89,225.70 278.65,224.99 279.40,224.27 280.15,223.56 280.91,222.86 281.66,222.16 282.41,221.46 283.16,220.76 283.92,220.07 284.67,219.39 285.42,218.70 286.18,218.02 286.93,217.35 287.68,216.67 288.43,216.00 289.19,215.34 289.94,214.68 290.69,214.02 291.45,213.36 292.20,212.71 292.95,212.06 293.70,211.42 294.46,210.78 295.21,210.14 295.96,209.50 296.72,208.87 297.47,208.24 298.22,207.62 298.97,207.00 299.73,206.38 300.48,205.76 301.23,205.15 301.99,204.54 302.74,203.94 303.49,203.34 304.24,202.74 305.00,202.14 305.75,201.55 306.50,200.96 307.26,200.37 308.01,199.79 308.76,199.21 309.51,198.63 310.27,198.06 311.02,197.49 311.77,196.92 312.53,196.36 313.28,195.80 314.03,195.24 314.79,194.68 315.54,194.13 316.29,193.58 317.04,193.03 317.80,192.49 318.55,191.95 319.30,191.41 320.06,190.88 320.81,190.35 321.56,189.82 322.31,189.29 323.07,188.77 323.82,188.25 324.57,187.73 325.33,187.22 326.08,186.70 326.83,186.19 327.58,185.69 328.34,185.19 329.09,184.68 329.84,184.19 330.60,183.69 331.35,183.20 332.10,182.71 332.85,182.22 333.61,181.74 334.36,181.26 335.11,180.78 335.87,180.31 336.62,179.83 337.37,179.36 338.12,178.90 338.88,178.43 339.63,177.97 340.38,177.51 341.14,177.06 341.89,176.60 342.64,176.15 343.39,175.70 344.15,175.26 344.90,174.82 345.65,174.38 346.41,173.94 347.16,173.50 347.91,173.07 348.66,172.64 349.42,172.22 350.17,171.79 350.92,171.37 351.68,170.96 352.43,170.54 353.18,170.13 353.94,169.72 354.69,169.31 355.44,168.91 356.19,168.51 356.95,168.11 357.70,167.71 358.45,167.32 359.21,166.93 359.96,166.54 360.71,166.16 361.46,165.78 362.22,165.40 362.97,165.02 363.72,164.65 364.48,164.28 365.23,163.92 365.98,163.55 366.73,163.19 367.49,162.83 368.24,162.48 368.99,162.13 369.75,161.78 370.50,161.44 371.25,161.10 372.00,160.76 372.76,160.42 373.51,160.09 374.26,159.76 375.02,159.44 375.77,159.12 376.52,158.80 377.27,158.49 378.03,158.18 378.78,157.87 379.53,157.57 380.29,157.27 381.04,156.98 381.79,156.69 382.54,156.40 383.30,156.12 384.05,155.85 384.80,155.58 385.56,155.31 386.31,155.05 387.06,154.79 387.81,154.54 388.57,154.30 389.32,154.06 390.07,153.83 390.83,153.61 391.58,153.39 392.33,153.18 393.09,152.98 393.84,152.78 394.59,152.60 395.34,152.42 396.10,152.26 396.85,152.10 397.60,151.96 398.36,151.83 399.11,151.72 399.86,151.62 400.61,151.55 401.37,151.49 402.12,151.45 402.87,151.44 403.63,151.47 404.38,151.53 405.13,151.63 405.88,151.79 406.64,152.02 407.39,152.33 408.14,152.77 408.90,153.38 409.65,154.26 410.40,155.64" />
<polyline fill="none" stroke="#1f4e79" stroke-width="3" stroke-dasharray="10 7" stroke-linejoin="round" stroke-linecap="round" points="110.00,566.28 110.75,562.67 111.51,559.14 112.26,555.65 113.01,552.20 113.76,548.79 114.52,545.41 115.27,542.07 116.02,538.75 116.78,535.47 117.53,532.22 118.28,528.99 119.03,525.80 119.79,522.63 120.54,519.49 121.29,516.38 122.05,513.30 122.80,510.24 123.55,507.21 124.30,504.20 125.06,501.22 125.81,498.26 126.56,495.33 127.32,492.42 128.07,489.54 128.82,486.68 129.58,483.84 130.33,481.03 131.08,478.24 131.83,475.47 132.59,472.72 133.34,470.00 134.09,467.29 134.85,464.61 135.60,461.95 136.35,459.31 137.10,456.69 137.86,454.09 138.61,451.51 139.36,448.95 140.12,446.41 140.87,443.89 141.62,441.39 142.37,438.91 143.13,436.44 143.88,434.00 144.63,431.57 145.39,429.16 146.14,426.77 146.89,424.40 147.64,422.04 148.40,419.71 149.15,417.38 149.90,415.08 150.66,412.79 151.41,410.52 152.16,408.27 152.91,406.03 153.67,403.81 154.42,401.60 155.17,399.41 155.93,397.24 156.68,395.08 157.43,392.94 158.18,390.81 158.94,388.70 159.69,386.60 160.44,384.52 161.20,382.45 161.95,380.39 162.70,378.35 163.45,376.33 164.21,374.32 164.96,372.32 165.71,370.33 166.47,368.36 167.22,366.41 167.97,364.46 168.73,362.53 169.48,360.61 170.23,358.71 170.98,356.82 171.74,354.94 172.49,353.07 173.24,351.22 174.00,349.38 174.75,347.55 175.50,345.73 176.25,343.93 177.01,342.13 177.76,340.35 178.51,338.58 179.27,336.82 180.02,335.08 180.77,333.34 181.52,331.62 182.28,329.91 183.03,328.20 183.78,326.51 184.54,324.83 185.29,323.17 186.04,321.51 186.79,319.86 187.55,318.22 188.30,316.60 189.05,314.98 189.81,313.37 190.56,311.78 191.31,310.19 192.06,308.62 192.82,307.05 193.57,305.50 194.32,303.95 195.08,302.41 195.83,300.89 196.58,299.37 197.33,297.86 198.09,296.36 198.84,294.87 199.59,293.39 200.35,291.92 201.10,290.46 201.85,289.01 202.60,287.56 203.36,286.13 204.11,284.70 204.86,283.28 205.62,281.87 206.37,280.47 207.12,279.08 207.88,277.69 208.63,276.32 209.38,274.95 210.13,273.59 210.89,272.24 211.64,270.90 212.39,269.56 213.15,268.23 213.90,266.92 214.65,265.60 215.40,264.30 216.16,263.00 216.91,261.72 217.66,260.43 218.42,259.16 219.17,257.89 219.92,256.64 220.67,255.39 221.43,254.14 222.18,252.90 222.93,251.67 223.69,250.45 224.44,249.24 225.19,248.03 225.94,246.83 226.70,245.63 227.45,244.45 228.20,243.26 228.96,242.09 229.71,240.92 230.46,239.76 231.21,238.61 231.97,237.46 232.72,236.32 233.47,235.19 234.23,234.06 234.98,232.94 235.73,231.82 236.48,230.71 237.24,229.61 237.99,228.51 238.74,227.42 239.50,226.34 240.25,225.26 241.00,224.19 241.76,223.12 242.51,222.06 243.26,221.00 244.01,219.96 244.77,218.91 245.52,217.88 246.27,216.85 247.03,215.82 247.78,214.80 248.53,213.79 249.28,212.78 250.04,211.77 250.79,210.78 251.54,209.78 252.30,208.80 253.05,207.82 253.80,206.84 254.55,205.87 255.31,204.90 256.06,203.94 256.81,202.99 257.57,202.04 258.32,201.09 259.07,200.15 259.82,199.22 260.58,198.29 261.33,197.37 262.08,196.45 262.84,195.53 263.59,194.62 264.34,193.72 265.09,192.82 265.85,191.92 266.60,191.03 267.35,190.15 268.11,189.27 268.86,188.39 269.61,187.52 270.36,186.65 271.12,185.79 271.87,184.94 272.62,184.08 273.38,183.24 274.13,182.39 274.88,181.55 275.63,180.72 276.39,179.89 277.14,179.06 277.89,178.24 278.65,177.42 279.40,176.61 280.15,175.80 280.91,175.00 281.66,174.20 282.41,173.40 283.16,172.61 283.92,171.82 284.67,171.04 285.42,170.26 286.18,169.49 286.93,168.72 287.68,167.95 288.43,167.19 289.19,166.43 289.94,165.68 290.69,164.92 291.45,164.18 292.20,163.44 292.95,162.70 293.70,161.96 294.46,161.23 295.21,160.50 295.96,159.78 296.72,159.06 297.47,158.35 298.22,157.63 298.97,156.93 299.73,156.22 300.48,155.52 301.23,154.83 301.99,154.13 302.74,153.44 303.49,152.76 304.24,152.07 305.00,151.40 305.75,150.72 306.50,150.05 307.26,149.38 308.01,148.72 308.76,148.06 309.51,147.40 310.27,146.75 311.02,146.10 311.77,145.45 312.53,144.81 313.28,144.17 314.03,143.53 314.79,142.90 315.54,142.27 316.29,141.64 317.04,141.02 317.80,140.40 318.55,139.78 319.30,139.17 320.06,138.56 320.81,137.96 321.56,137.35 322.31,136.75 323.07,136.16 323.82,135.57 324.57,134.98 325.33,134.39 326.08,133.81 326.83,133.23 327.58,132.65 328.34,132.08 329.09,131.51 329.84,130.94 330.60,130.38 331.35,129.82 332.10,129.26 332.85,128.70 333.61,128.15 334.36,127.61 335.11,127.06 335.87,126.52 336.62,125.98 337.37,125.44 338.12,124.91 338.88,124.38 339.63,123.86 340.38,123.33 341.14,122.82 341.89,122.30 342.64,121.79 343.39,121.27 344.15,120.77 344.90,120.26 345.65,119.76 346.41,119.26 347.16,118.77 347.91,118.28 348.66,117.79 349.42,117.30 350.17,116.82 350.92,116.34 351.68,115.87 352.43,115.39 353.18,114.92 353.94,114.46 354.69,113.99 355.44,113.53 356.19,113.08 356.95,112.62 357.70,112.17 358.45,111.72 359.21,111.28 359.96,110.84 360.71,110.40 361.46,109.97 362.22,109.54 362.97,109.11 363.72,108.68 364.48,108.26 365.23,107.84 365.98,107.43 366.73,107.02 367.49,106.61 368.24,106.21 368.99,105.81 369.75,105.41 370.50,105.02 371.25,104.63 372.00,104.25 372.76,103.86 373.51,103.49 374.26,103.11 375.02,102.74 375.77,102.38 376.52,102.02 377.27,101.66 378.03,101.31 378.78,100.96 379.53,100.61 380.29,100.27 381.04,99.94 381.79,99.61 382.54,99.29 383.30,98.97 384.05,98.65 384.80,98.34 385.56,98.04 386.31,97.74 387.06,97.45 387.81,97.17 388.57,96.89 389.32,96.62 390.07,96.35 390.83,96.10 391.58,95.85 392.33,95.61 393.09,95.38 393.84,95.16 394.59,94.95 395.34,94.75 396.10,94.56 396.85,94.39 397.60,94.23 398.36,94.08 399.11,93.95 399.86,93.84 400.61,93.75 401.37,93.69 402.12,93.65 402.87,93.64 403.63,93.66 404.38,93.73 405.13,93.85 405.88,94.03 406.64,94.29 407.39,94.65 408.14,95.14 408.90,95.84 409.65,96.85 410.40,98.42" />
<polyline fill="none" stroke="#b5514a" stroke-width="3" stroke-linejoin="round" stroke-linecap="round" points="110.03,566.30 111.54,563.16 113.04,560.08 114.55,557.04 116.05,554.04 117.56,551.07 119.06,548.13 120.57,545.22 122.08,542.34 123.58,539.49 125.09,536.66 126.59,533.86 128.10,531.08 129.61,528.34 131.11,525.61 132.62,522.91 134.12,520.23 135.63,517.58 137.13,514.95 138.64,512.35 140.15,509.76 141.65,507.20 143.16,504.66 144.66,502.14 146.17,499.64 147.67,497.17 149.18,494.71 150.69,492.28 152.19,489.86 153.70,487.47 155.20,485.10 156.71,482.74 158.21,480.40 159.72,478.09 161.23,475.79 162.73,473.51 164.24,471.25 165.74,469.01 167.25,466.78 168.76,464.58 170.26,462.39 171.77,460.21 173.27,458.06 174.78,455.92 176.28,453.80 177.79,451.70 179.30,449.61 180.80,447.54 182.31,445.48 183.81,443.44 185.32,441.42 186.82,439.41 188.33,437.41 189.84,435.44 191.34,433.47 192.85,431.52 194.35,429.59 195.86,427.67 197.36,425.77 198.87,423.88 200.38,422.00 201.88,420.14 203.39,418.29 204.89,416.46 206.40,414.64 207.91,412.83 209.41,411.04 210.92,409.25 212.42,407.49 213.93,405.73 215.43,403.99 216.94,402.26 218.45,400.54 219.95,398.84 221.46,397.15 222.96,395.47 224.47,393.80 225.97,392.14 227.48,390.50 228.99,388.87 230.49,387.25 232.00,385.64 233.50,384.04 235.01,382.45 236.51,380.88 238.02,379.31 239.53,377.76 241.03,376.22 242.54,374.69 244.04,373.17 245.55,371.66 247.06,370.16 248.56,368.67 250.07,367.19 251.57,365.72 253.08,364.26 254.58,362.81 256.09,361.37 257.60,359.94 259.10,358.52 260.61,357.12 262.11,355.72 263.62,354.33 265.12,352.94 266.63,351.57 268.14,350.21 269.64,348.86 271.15,347.51 272.65,346.18 274.16,344.85 275.66,343.53 277.17,342.23 278.68,340.93 280.18,339.64 281.69,338.35 283.19,337.08 284.70,335.81 286.21,334.56 287.71,333.31 289.22,332.07 290.72,330.83 292.23,329.61 293.73,328.39 295.24,327.18 296.75,325.98 298.25,324.79 299.76,323.61 301.26,322.43 302.77,321.26 304.27,320.10 305.78,318.94 307.29,317.80 308.79,316.66 310.30,315.52 311.80,314.40 313.31,313.28 314.82,312.17 316.32,311.07 317.83,309.97 319.33,308.88 320.84,307.80 322.34,306.72 323.85,305.65 325.36,304.59 326.86,303.54 328.37,302.49 329.87,301.44 331.38,300.41 332.88,299.38 334.39,298.36 335.90,297.34 337.40,296.33 338.91,295.33 340.41,294.33 341.92,293.34 343.42,292.36 344.93,291.38 346.44,290.41 347.94,289.44 349.45,288.48 350.95,287.52 352.46,286.58 353.97,285.63 355.47,284.70 356.98,283.77 358.48,282.84 359.99,281.92 361.49,281.01 363.00,280.10 364.51,279.20 366.01,278.30 367.52,277.41 369.02,276.52 370.53,275.64 372.03,274.77 373.54,273.90 375.05,273.03 376.55,272.17 378.06,271.32 379.56,270.47 381.07,269.63 382.57,268.79 384.08,267.96 385.59,267.13 387.09,266.30 388.60,265.49 390.10,264.67 391.61,263.87 393.12,263.06 394.62,262.26 396.13,261.47 397.63,260.68 399.14,259.90 400.64,259.12 402.15,258.34 403.66,257.57 405.16,256.81 406.67,256.05 408.17,255.29 409.68,254.54 411.18,253.79 412.69,253.05 414.20,252.31 415.70,251.58 417.21,250.85 418.71,250.13 420.22,249.41 421.72,248.69 423.23,247.98 424.74,247.27 426.24,246.57 427.75,245.87 429.25,245.17 430.76,244.48 432.27,243.80 433.77,243.11 435.28,242.44 436.78,241.76 438.29,241.09 439.79,240.43 441.30,239.76 442.81,239.11 444.31,238.45 445.82,237.80 447.32,237.16 448.83,236.51 450.33,235.87 451.84,235.24 453.35,234.61 454.85,233.98 456.36,233.36 457.86,232.74 459.37,232.12 460.87,231.51 462.38,230.90 463.89,230.30 465.39,229.70 466.90,229.10 468.40,228.51 469.91,227.92 471.42,227.33 472.92,226.75 474.43,226.17 475.93,225.59 477.44,225.02 478.94,224.45 480.45,223.89 481.96,223.32 483.46,222.77 484.97,222.21 486.47,221.66 487.98,221.11 489.48,220.56 490.99,220.02 492.50,219.48 494.00,218.95 495.51,218.42 497.01,217.89 498.52,217.36 500.03,216.84 501.53,216.32 503.04,215.81 504.54,215.30 506.05,214.79 507.55,214.28 509.06,213.78 510.57,213.28 512.07,212.78 513.58,212.29 515.08,211.80 516.59,211.31 518.09,210.83 519.60,210.35 521.11,209.87 522.61,209.39 524.12,208.92 525.62,208.45 527.13,207.99 528.63,207.52 530.14,207.06 531.65,206.61 533.15,206.15 534.66,205.70 536.16,205.25 537.67,204.81 539.18,204.37 540.68,203.93 542.19,203.49 543.69,203.06 545.20,202.63 546.70,202.20 548.21,201.78 549.72,201.35 551.22,200.93 552.73,200.52 554.23,200.11 555.74,199.69 557.24,199.29 558.75,198.88 560.26,198.48 561.76,198.08 563.27,197.68 564.77,197.29 566.28,196.90 567.78,196.51 569.29,196.13 570.80,195.75 572.30,195.37 573.81,194.99 575.31,194.62 576.82,194.24 578.33,193.88 579.83,193.51 581.34,193.15 582.84,192.79 584.35,192.43 585.85,192.08 587.36,191.72 588.87,191.38 590.37,191.03 591.88,190.69 593.38,190.35 594.89,190.01 596.39,189.67 597.90,189.34 599.41,189.01 600.91,188.69 602.42,188.36 603.92,188.04 605.43,187.72 606.93,187.41 608.44,187.10 609.95,186.79 611.45,186.48 612.96,186.18 614.46,185.88 615.97,185.58 617.48,185.29 618.98,185.00 620.49,184.71 621.99,184.42 623.50,184.14 625.00,183.86 626.51,183.59 628.02,183.31 629.52,183.04 631.03,182.78 632.53,182.52 634.04,182.26 635.54,182.00 637.05,181.75 638.56,181.50 640.06,181.25 641.57,181.01 643.07,180.77 644.58,180.54 646.08,180.31 647.59,180.08 649.10,179.86 650.60,179.64 652.11,179.43 653.61,179.22 655.12,179.01 656.63,178.81 658.13,178.62 659.64,178.42 661.14,178.24 662.65,178.06 664.15,177.88 665.66,177.71 667.17,177.55 668.67,177.39 670.18,177.24 671.68,177.09 673.19,176.96 674.69,176.83 676.20,176.70 677.71,176.59 679.21,176.48 680.72,176.39 682.22,176.31 683.73,176.23 685.24,176.17 686.74,176.12 688.25,176.09 689.75,176.08 691.26,176.08 692.76,176.10 694.27,176.15 695.78,176.22 697.28,176.32 698.79,176.46 700.29,176.65 701.80,176.89 703.30,177.20 704.81,177.59 706.32,178.11 707.82,178.80 709.33,179.77 710.83,181.23" />
<polyline fill="none" stroke="#b5514a" stroke-width="3" stroke-dasharray="10 7" stroke-linejoin="round" stroke-linecap="round" points="110.03,566.28 111.54,562.70 113.04,559.20 114.55,555.74 116.05,552.32 117.56,548.93 119.06,545.58 120.57,542.27 122.08,538.99 123.58,535.73 125.09,532.51 126.59,529.32 128.10,526.16 129.61,523.03 131.11,519.92 132.62,516.85 134.12,513.80 135.63,510.78 137.13,507.78 138.64,504.81 140.15,501.87 141.65,498.95 143.16,496.05 144.66,493.19 146.17,490.34 147.67,487.52 149.18,484.72 150.69,481.95 152.19,479.20 153.70,476.47 155.20,473.77 156.71,471.08 158.21,468.42 159.72,465.78 161.23,463.16 162.73,460.57 164.24,457.99 165.74,455.44 167.25,452.90 168.76,450.39 170.26,447.89 171.77,445.42 173.27,442.96 174.78,440.53 176.28,438.11 177.79,435.71 179.30,433.33 180.80,430.97 182.31,428.63 183.81,426.31 185.32,424.00 186.82,421.71 188.33,419.44 189.84,417.19 191.34,414.95 192.85,412.73 194.35,410.53 195.86,408.34 197.36,406.17 198.87,404.02 200.38,401.88 201.88,399.76 203.39,397.66 204.89,395.57 206.40,393.49 207.91,391.43 209.41,389.39 210.92,387.36 212.42,385.35 213.93,383.35 215.43,381.36 216.94,379.39 218.45,377.44 219.95,375.49 221.46,373.57 222.96,371.65 224.47,369.75 225.97,367.87 227.48,365.99 228.99,364.13 230.49,362.29 232.00,360.45 233.50,358.63 235.01,356.83 236.51,355.03 238.02,353.25 239.53,351.48 241.03,349.72 242.54,347.98 244.04,346.24 245.55,344.52 247.06,342.82 248.56,341.12 250.07,339.43 251.57,337.76 253.08,336.10 254.58,334.45 256.09,332.81 257.60,331.18 259.10,329.56 260.61,327.96 262.11,326.36 263.62,324.78 265.12,323.21 266.63,321.64 268.14,320.09 269.64,318.55 271.15,317.02 272.65,315.50 274.16,313.99 275.66,312.48 277.17,310.99 278.68,309.51 280.18,308.04 281.69,306.58 283.19,305.13 284.70,303.69 286.21,302.26 287.71,300.83 289.22,299.42 290.72,298.02 292.23,296.62 293.73,295.23 295.24,293.86 296.75,292.49 298.25,291.13 299.76,289.78 301.26,288.44 302.77,287.11 304.27,285.78 305.78,284.47 307.29,283.16 308.79,281.86 310.30,280.57 311.80,279.29 313.31,278.02 314.82,276.75 316.32,275.49 317.83,274.24 319.33,273.00 320.84,271.77 322.34,270.54 323.85,269.33 325.36,268.12 326.86,266.91 328.37,265.72 329.87,264.53 331.38,263.35 332.88,262.18 334.39,261.01 335.90,259.86 337.40,258.71 338.91,257.56 340.41,256.43 341.92,255.30 343.42,254.18 344.93,253.06 346.44,251.95 347.94,250.85 349.45,249.76 350.95,248.67 352.46,247.59 353.97,246.52 355.47,245.45 356.98,244.39 358.48,243.34 359.99,242.29 361.49,241.25 363.00,240.21 364.51,239.19 366.01,238.16 367.52,237.15 369.02,236.14 370.53,235.13 372.03,234.14 373.54,233.15 375.05,232.16 376.55,231.18 378.06,230.21 379.56,229.24 381.07,228.28 382.57,227.33 384.08,226.38 385.59,225.43 387.09,224.50 388.60,223.56 390.10,222.64 391.61,221.72 393.12,220.80 394.62,219.89 396.13,218.99 397.63,218.09 399.14,217.20 400.64,216.31 402.15,215.43 403.66,214.55 405.16,213.68 406.67,212.81 408.17,211.95 409.68,211.09 411.18,210.24 412.69,209.40 414.20,208.56 415.70,207.72 417.21,206.89 418.71,206.06 420.22,205.24 421.72,204.43 423.23,203.62 424.74,202.81 426.24,202.01 427.75,201.21 429.25,200.42 430.76,199.63 432.27,198.85 433.77,198.08 435.28,197.30 436.78,196.53 438.29,195.77 439.79,195.01 441.30,194.26 442.81,193.51 444.31,192.76 445.82,192.02 447.32,191.29 448.83,190.56 450.33,189.83 451.84,189.10 453.35,188.39 454.85,187.67 456.36,186.96 457.86,186.26 459.37,185.55 460.87,184.86 462.38,184.16 463.89,183.48 465.39,182.79 466.90,182.11 468.40,181.43 469.91,180.76 471.42,180.09 472.92,179.43 474.43,178.77 475.93,178.11 477.44,177.46 478.94,176.81 480.45,176.17 481.96,175.53 483.46,174.89 484.97,174.26 486.47,173.63 487.98,173.01 489.48,172.38 490.99,171.77 492.50,171.15 494.00,170.54 495.51,169.94 497.01,169.34 498.52,168.74 500.03,168.14 501.53,167.55 503.04,166.97 504.54,166.38 506.05,165.80 507.55,165.23 509.06,164.65 510.57,164.08 512.07,163.52 513.58,162.96 515.08,162.40 516.59,161.84 518.09,161.29 519.60,160.74 521.11,160.20 522.61,159.66 524.12,159.12 525.62,158.59 527.13,158.05 528.63,157.53 530.14,157.00 531.65,156.48 533.15,155.97 534.66,155.45 536.16,154.94 537.67,154.43 539.18,153.93 540.68,153.43 542.19,152.93 543.69,152.44 545.20,151.95 546.70,151.46 548.21,150.98 549.72,150.50 551.22,150.02 552.73,149.55 554.23,149.08 555.74,148.61 557.24,148.14 558.75,147.68 560.26,147.22 561.76,146.77 563.27,146.32 564.77,145.87 566.28,145.42 567.78,144.98 569.29,144.54 570.80,144.11 572.30,143.68 573.81,143.25 575.31,142.82 576.82,142.40 578.33,141.98 579.83,141.56 581.34,141.15 582.84,140.74 584.35,140.33 585.85,139.93 587.36,139.53 588.87,139.13 590.37,138.73 591.88,138.34 593.38,137.96 594.89,137.57 596.39,137.19 597.90,136.81 599.41,136.44 600.91,136.06 602.42,135.70 603.92,135.33 605.43,134.97 606.93,134.61 608.44,134.26 609.95,133.90 611.45,133.55 612.96,133.21 614.46,132.87 615.97,132.53 617.48,132.19 618.98,131.86 620.49,131.53 621.99,131.21 623.50,130.89 625.00,130.57 626.51,130.26 628.02,129.94 629.52,129.64 631.03,129.34 632.53,129.04 634.04,128.74 635.54,128.45 637.05,128.16 638.56,127.88 640.06,127.60 641.57,127.32 643.07,127.05 644.58,126.78 646.08,126.52 647.59,126.26 649.10,126.01 650.60,125.76 652.11,125.52 653.61,125.28 655.12,125.04 656.63,124.82 658.13,124.59 659.64,124.37 661.14,124.16 662.65,123.96 664.15,123.76 665.66,123.56 667.17,123.37 668.67,123.19 670.18,123.02 671.68,122.86 673.19,122.70 674.69,122.55 676.20,122.41 677.71,122.28 679.21,122.16 680.72,122.06 682.22,121.96 683.73,121.88 685.24,121.81 686.74,121.75 688.25,121.72 689.75,121.70 691.26,121.70 692.76,121.73 694.27,121.78 695.78,121.86 697.28,121.98 698.79,122.14 700.29,122.35 701.80,122.62 703.30,122.97 704.81,123.43 706.32,124.02 707.82,124.80 709.33,125.90 710.83,127.57" />
<polyline fill="none" stroke="#4f7c43" stroke-width="3" stroke-linejoin="round" stroke-linecap="round" points="110.06,566.36 112.29,564.83 114.52,563.32 116.75,561.82 118.98,560.33 121.21,558.86 123.44,557.39 125.67,555.94 127.90,554.49 130.13,553.05 132.36,551.62 134.59,550.20 136.82,548.78 139.05,547.38 141.28,545.98 143.52,544.59 145.75,543.20 147.98,541.83 150.21,540.46 152.44,539.09 154.67,537.74 156.90,536.39 159.13,535.05 161.36,533.71 163.59,532.38 165.82,531.06 168.05,529.75 170.28,528.44 172.51,527.14 174.74,525.85 176.97,524.56 179.20,523.27 181.43,522.00 183.66,520.73 185.89,519.47 188.12,518.21 190.35,516.96 192.58,515.71 194.82,514.48 197.05,513.24 199.28,512.02 201.51,510.80 203.74,509.58 205.97,508.37 208.20,507.17 210.43,505.97 212.66,504.78 214.89,503.60 217.12,502.42 219.35,501.24 221.58,500.07 223.81,498.91 226.04,497.75 228.27,496.60 230.50,495.45 232.73,494.31 234.96,493.18 237.19,492.05 239.42,490.92 241.65,489.80 243.88,488.69 246.12,487.58 248.35,486.47 250.58,485.38 252.81,484.28 255.04,483.19 257.27,482.11 259.50,481.03 261.73,479.96 263.96,478.89 266.19,477.83 268.42,476.77 270.65,475.71 272.88,474.67 275.11,473.62 277.34,472.58 279.57,471.55 281.80,470.52 284.03,469.50 286.26,468.48 288.49,467.46 290.72,466.45 292.95,465.44 295.18,464.44 297.41,463.45 299.65,462.45 301.88,461.47 304.11,460.48 306.34,459.51 308.57,458.53 310.80,457.56 313.03,456.60 315.26,455.64 317.49,454.68 319.72,453.73 321.95,452.78 324.18,451.84 326.41,450.90 328.64,449.97 330.87,449.04 333.10,448.11 335.33,447.19 337.56,446.27 339.79,445.36 342.02,444.45 344.25,443.54 346.48,442.64 348.71,441.75 350.95,440.85 353.18,439.96 355.41,439.08 357.64,438.20 359.87,437.32 362.10,436.45 364.33,435.58 366.56,434.72 368.79,433.86 371.02,433.00 373.25,432.15 375.48,431.30 377.71,430.45 379.94,429.61 382.17,428.77 384.40,427.94 386.63,427.11 388.86,426.28 391.09,425.46 393.32,424.64 395.55,423.82 397.78,423.01 400.01,422.20 402.25,421.40 404.48,420.60 406.71,419.80 408.94,419.01 411.17,418.22 413.40,417.43 415.63,416.65 417.86,415.87 420.09,415.09 422.32,414.32 424.55,413.55 426.78,412.78 429.01,412.02 431.24,411.26 433.47,410.51 435.70,409.76 437.93,409.01 440.16,408.26 442.39,407.52 444.62,406.78 446.85,406.05 449.08,405.32 451.31,404.59 453.54,403.86 455.78,403.14 458.01,402.42 460.24,401.71 462.47,400.99 464.70,400.28 466.93,399.58 469.16,398.88 471.39,398.18 473.62,397.48 475.85,396.79 478.08,396.10 480.31,395.41 482.54,394.73 484.77,394.05 487.00,393.37 489.23,392.69 491.46,392.02 493.69,391.35 495.92,390.69 498.15,390.03 500.38,389.37 502.61,388.71 504.84,388.06 507.08,387.40 509.31,386.76 511.54,386.11 513.77,385.47 516.00,384.83 518.23,384.20 520.46,383.56 522.69,382.93 524.92,382.31 527.15,381.68 529.38,381.06 531.61,380.44 533.84,379.82 536.07,379.21 538.30,378.60 540.53,377.99 542.76,377.39 544.99,376.79 547.22,376.19 549.45,375.59 551.68,375.00 553.91,374.41 556.14,373.82 558.38,373.23 560.61,372.65 562.84,372.07 565.07,371.49 567.30,370.92 569.53,370.34 571.76,369.77 573.99,369.21 576.22,368.64 578.45,368.08 580.68,367.52 582.91,366.97 585.14,366.41 587.37,365.86 589.60,365.31 591.83,364.77 594.06,364.22 596.29,363.68 598.52,363.14 600.75,362.61 602.98,362.07 605.21,361.54 607.44,361.01 609.67,360.49 611.91,359.97 614.14,359.44 616.37,358.93 618.60,358.41 620.83,357.90 623.06,357.39 625.29,356.88 627.52,356.37 629.75,355.87 631.98,355.37 634.21,354.87 636.44,354.37 638.67,353.88 640.90,353.38 643.13,352.90 645.36,352.41 647.59,351.92 649.82,351.44 652.05,350.96 654.28,350.48 656.51,350.01 658.74,349.54 660.97,349.07 663.21,348.60 665.44,348.13 667.67,347.67 669.90,347.21 672.13,346.75 674.36,346.29 676.59,345.84 678.82,345.39 681.05,344.94 683.28,344.49 685.51,344.04 687.74,343.60 689.97,343.16 692.20,342.72 694.43,342.29 696.66,341.85 698.89,341.42 701.12,340.99 703.35,340.57 705.58,340.14 707.81,339.72 710.04,339.30 712.27,338.88 714.51,338.46 716.74,338.05 718.97,337.64 721.20,337.23 723.43,336.82 725.66,336.42 727.89,336.02 730.12,335.62 732.35,335.22 734.58,334.82 736.81,334.43 739.04,334.04 741.27,333.65 743.50,333.26 745.73,332.87 747.96,332.49 750.19,332.11 752.42,331.73 754.65,331.36 756.88,330.98 759.11,330.61 761.34,330.24 763.57,329.87 765.80,329.51 768.04,329.15 770.27,328.79 772.50,328.43 774.73,328.07 776.96,327.72 779.19,327.36 781.42,327.01 783.65,326.67 785.88,326.32 788.11,325.98 790.34,325.64 792.57,325.30 794.80,324.96 797.03,324.63 799.26,324.30 801.49,323.97 803.72,323.64 805.95,323.31 808.18,322.99 810.41,322.67 812.64,322.35 814.87,322.04 817.10,321.72 819.34,321.41 821.57,321.10 823.80,320.80 826.03,320.49 828.26,320.19 830.49,319.89 832.72,319.59 834.95,319.30 837.18,319.01 839.41,318.72 841.64,318.43 843.87,318.14 846.10,317.86 848.33,317.58 850.56,317.30 852.79,317.03 855.02,316.76 857.25,316.49 859.48,316.22 861.71,315.95 863.94,315.69 866.17,315.43 868.40,315.18 870.64,314.92 872.87,314.67 875.10,314.42 877.33,314.18 879.56,313.94 881.79,313.70 884.02,313.46 886.25,313.23 888.48,313.00 890.71,312.77 892.94,312.55 895.17,312.33 897.40,312.11 899.63,311.90 901.86,311.69 904.09,311.49 906.32,311.28 908.55,311.09 910.78,310.89 913.01,310.70 915.24,310.52 917.47,310.34 919.70,310.16 921.93,309.99 924.17,309.82 926.40,309.66 928.63,309.50 930.86,309.35 933.09,309.20 935.32,309.06 937.55,308.93 939.78,308.80 942.01,308.68 944.24,308.57 946.47,308.46 948.70,308.37 950.93,308.28 953.16,308.20 955.39,308.13 957.62,308.07 959.85,308.03 962.08,307.99 964.31,307.98 966.54,307.97 968.77,307.99 971.00,308.02 973.23,308.08 975.47,308.16 977.70,308.27 979.93,308.41 982.16,308.59 984.39,308.82 986.62,309.11 988.85,309.47 991.08,309.93 993.31,310.52 995.54,311.29 997.77,312.36 1000.00,313.97" />
<polyline fill="none" stroke="#4f7c43" stroke-width="3" stroke-dasharray="10 7" stroke-linejoin="round" stroke-linecap="round" points="110.06,566.35 112.29,564.61 114.52,562.88 116.75,561.18 118.98,559.49 121.21,557.81 123.44,556.14 125.67,554.48 127.90,552.83 130.13,551.19 132.36,549.56 134.59,547.94 136.82,546.33 139.05,544.72 141.28,543.13 143.52,541.54 145.75,539.97 147.98,538.40 150.21,536.84 152.44,535.29 154.67,533.74 156.90,532.20 159.13,530.68 161.36,529.16 163.59,527.64 165.82,526.14 168.05,524.64 170.28,523.15 172.51,521.67 174.74,520.19 176.97,518.72 179.20,517.26 181.43,515.81 183.66,514.36 185.89,512.93 188.12,511.49 190.35,510.07 192.58,508.65 194.82,507.24 197.05,505.84 199.28,504.44 201.51,503.05 203.74,501.66 205.97,500.29 208.20,498.92 210.43,497.55 212.66,496.19 214.89,494.84 217.12,493.50 219.35,492.16 221.58,490.83 223.81,489.50 226.04,488.19 228.27,486.87 230.50,485.57 232.73,484.27 234.96,482.97 237.19,481.68 239.42,480.40 241.65,479.13 243.88,477.86 246.12,476.59 248.35,475.34 250.58,474.08 252.81,472.84 255.04,471.60 257.27,470.36 259.50,469.14 261.73,467.91 263.96,466.70 266.19,465.48 268.42,464.28 270.65,463.08 272.88,461.88 275.11,460.69 277.34,459.51 279.57,458.33 281.80,457.16 284.03,455.99 286.26,454.83 288.49,453.67 290.72,452.52 292.95,451.38 295.18,450.24 297.41,449.10 299.65,447.97 301.88,446.85 304.11,445.73 306.34,444.61 308.57,443.50 310.80,442.40 313.03,441.30 315.26,440.20 317.49,439.12 319.72,438.03 321.95,436.95 324.18,435.88 326.41,434.81 328.64,433.74 330.87,432.68 333.10,431.63 335.33,430.58 337.56,429.53 339.79,428.49 342.02,427.46 344.25,426.43 346.48,425.40 348.71,424.38 350.95,423.36 353.18,422.35 355.41,421.34 357.64,420.34 359.87,419.34 362.10,418.34 364.33,417.35 366.56,416.37 368.79,415.39 371.02,414.41 373.25,413.44 375.48,412.47 377.71,411.51 379.94,410.55 382.17,409.59 384.40,408.64 386.63,407.70 388.86,406.76 391.09,405.82 393.32,404.89 395.55,403.96 397.78,403.03 400.01,402.11 402.25,401.20 404.48,400.28 406.71,399.37 408.94,398.47 411.17,397.57 413.40,396.67 415.63,395.78 417.86,394.89 420.09,394.01 422.32,393.13 424.55,392.25 426.78,391.38 429.01,390.51 431.24,389.65 433.47,388.79 435.70,387.93 437.93,387.08 440.16,386.23 442.39,385.39 444.62,384.54 446.85,383.71 449.08,382.87 451.31,382.04 453.54,381.22 455.78,380.39 458.01,379.57 460.24,378.76 462.47,377.95 464.70,377.14 466.93,376.34 469.16,375.54 471.39,374.74 473.62,373.95 475.85,373.16 478.08,372.37 480.31,371.59 482.54,370.81 484.77,370.03 487.00,369.26 489.23,368.49 491.46,367.73 493.69,366.96 495.92,366.21 498.15,365.45 500.38,364.70 502.61,363.95 504.84,363.21 507.08,362.47 509.31,361.73 511.54,360.99 513.77,360.26 516.00,359.54 518.23,358.81 520.46,358.09 522.69,357.37 524.92,356.66 527.15,355.95 529.38,355.24 531.61,354.53 533.84,353.83 536.07,353.13 538.30,352.44 540.53,351.74 542.76,351.05 544.99,350.37 547.22,349.69 549.45,349.01 551.68,348.33 553.91,347.66 556.14,346.99 558.38,346.32 560.61,345.66 562.84,344.99 565.07,344.34 567.30,343.68 569.53,343.03 571.76,342.38 573.99,341.73 576.22,341.09 578.45,340.45 580.68,339.81 582.91,339.18 585.14,338.55 587.37,337.92 589.60,337.30 591.83,336.67 594.06,336.06 596.29,335.44 598.52,334.83 600.75,334.21 602.98,333.61 605.21,333.00 607.44,332.40 609.67,331.80 611.91,331.20 614.14,330.61 616.37,330.02 618.60,329.43 620.83,328.85 623.06,328.27 625.29,327.69 627.52,327.11 629.75,326.54 631.98,325.96 634.21,325.40 636.44,324.83 638.67,324.27 640.90,323.71 643.13,323.15 645.36,322.59 647.59,322.04 649.82,321.49 652.05,320.95 654.28,320.40 656.51,319.86 658.74,319.32 660.97,318.79 663.21,318.25 665.44,317.72 667.67,317.19 669.90,316.67 672.13,316.15 674.36,315.63 676.59,315.11 678.82,314.59 681.05,314.08 683.28,313.57 685.51,313.07 687.74,312.56 689.97,312.06 692.20,311.56 694.43,311.06 696.66,310.57 698.89,310.08 701.12,309.59 703.35,309.10 705.58,308.62 707.81,308.14 710.04,307.66 712.27,307.18 714.51,306.71 716.74,306.24 718.97,305.77 721.20,305.30 723.43,304.84 725.66,304.38 727.89,303.92 730.12,303.46 732.35,303.01 734.58,302.56 736.81,302.11 739.04,301.66 741.27,301.22 743.50,300.78 745.73,300.34 747.96,299.90 750.19,299.47 752.42,299.04 754.65,298.61 756.88,298.18 759.11,297.76 761.34,297.34 763.57,296.92 765.80,296.51 768.04,296.09 770.27,295.68 772.50,295.27 774.73,294.87 776.96,294.46 779.19,294.06 781.42,293.66 783.65,293.27 785.88,292.87 788.11,292.48 790.34,292.10 792.57,291.71 794.80,291.33 797.03,290.95 799.26,290.57 801.49,290.19 803.72,289.82 805.95,289.45 808.18,289.08 810.41,288.72 812.64,288.35 814.87,287.99 817.10,287.64 819.34,287.28 821.57,286.93 823.80,286.58 826.03,286.23 828.26,285.89 830.49,285.55 832.72,285.21 834.95,284.87 837.18,284.54 839.41,284.21 841.64,283.88 843.87,283.56 846.10,283.23 848.33,282.91 850.56,282.60 852.79,282.29 855.02,281.98 857.25,281.67 859.48,281.36 861.71,281.06 863.94,280.76 866.17,280.47 868.40,280.18 870.64,279.89 872.87,279.60 875.10,279.32 877.33,279.04 879.56,278.76 881.79,278.49 884.02,278.22 886.25,277.96 888.48,277.70 890.71,277.44 892.94,277.18 895.17,276.93 897.40,276.69 899.63,276.44 901.86,276.21 904.09,275.97 906.32,275.74 908.55,275.52 910.78,275.30 913.01,275.08 915.24,274.87 917.47,274.66 919.70,274.46 921.93,274.26 924.17,274.07 926.40,273.89 928.63,273.71 930.86,273.54 933.09,273.37 935.32,273.21 937.55,273.06 939.78,272.91 942.01,272.78 944.24,272.65 946.47,272.53 948.70,272.42 950.93,272.32 953.16,272.23 955.39,272.15 957.62,272.08 959.85,272.03 962.08,271.99 964.31,271.97 966.54,271.97 968.77,271.99 971.00,272.02 973.23,272.09 975.47,272.18 977.70,272.30 979.93,272.47 982.16,272.68 984.39,272.94 986.62,273.27 988.85,273.68 991.08,274.20 993.31,274.87 995.54,275.75 997.77,276.97 1000.00,278.81" />
<rect x="750" y="80" width="250" height="190" rx="8" fill="#ffffff" fill-opacity="0.92" stroke="#cccccc" />
<line x1="764" y1="102" x2="804" y2="102" stroke="#1f4e79" stroke-width="3" />
<text x="814" y="107" font-size="15" font-family="Arial, sans-serif" fill="#303030">HHV 0.5 M</text>
<line x1="764" y1="130" x2="804" y2="130" stroke="#1f4e79" stroke-width="3" stroke-dasharray="10 7" />
<text x="814" y="135" font-size="15" font-family="Arial, sans-serif" fill="#303030">LHV 0.5 M</text>
<line x1="764" y1="158" x2="804" y2="158" stroke="#b5514a" stroke-width="3" />
<text x="814" y="163" font-size="15" font-family="Arial, sans-serif" fill="#303030">HHV 1.0 M</text>
<line x1="764" y1="186" x2="804" y2="186" stroke="#b5514a" stroke-width="3" stroke-dasharray="10 7" />
<text x="814" y="191" font-size="15" font-family="Arial, sans-serif" fill="#303030">LHV 1.0 M</text>
<line x1="764" y1="214" x2="804" y2="214" stroke="#4f7c43" stroke-width="3" />
<text x="814" y="219" font-size="15" font-family="Arial, sans-serif" fill="#303030">HHV 3.0 M</text>
<line x1="764" y1="242" x2="804" y2="242" stroke="#4f7c43" stroke-width="3" stroke-dasharray="10 7" />
<text x="814" y="247" font-size="15" font-family="Arial, sans-serif" fill="#303030">LHV 3.0 M</text>
<text x="520.0" y="656" text-anchor="middle" font-size="18" font-family="Arial, sans-serif" fill="#1f1f1f">Current density (A cm^-2)</text>
<text x="28" y="340.0" text-anchor="middle" font-size="18" font-family="Arial, sans-serif" fill="#1f1f1f" transform="rotate(-90 28 340.0)">Efficiency</text>
</svg>