<svg xmlns="http://www.w3.org/2000/svg" width="1040" height="680" viewBox="0 0 1040 680">
<rect width="100%" height="100%" fill="#ffffff" />
<text x="520.0" y="38" text-anchor="middle" font-size="26" font-family="Georgia, serif" fill="#1f1f1f">DMFC Polarization Curve</text>
<line x1="110.00" y1="70" x2="110.00" y2="590" stroke="#e3e3e3" stroke-width="1" />
<text x="110.00" y="616" text-anchor="middle" font-size="15" font-family="Arial, sans-serif" fill="#4b4b4b">0.000</text>
<line x1="288.00" y1="70" x2="288.00" y2="590" stroke="#e3e3e3" stroke-width="1" />
<text x="288.00" y="616" text-anchor="middle" font-size="15" font-family="Arial, sans-serif" fill="#4b4b4b">0.094</text>
<line x1="466.00" y1="70" x2="466.00" y2="590" stroke="#e3e3e3" stroke-width="1" />
<text x="466.00" y="616" text-anchor="middle" font-size="15" font-family="Arial, sans-serif" fill="#4b4b4b">0.187</text>
<line x1="644.00" y1="70" x2="644.00" y2="590" stroke="#e3e3e3" stroke-width="1" />
<text x="644.00" y="616" text-anchor="middle" font-size="15" font-family="Arial, sans-serif" fill="#4b4b4b">0.281</text>
<line x1="822.00" y1="70" x2="822.00" y2="590" stroke="#e3e3e3" stroke-width="1" />
<text x="822.00" y="616" text-anchor="middle" font-size="15" font-family="Arial, sans-serif" fill="#4b4b4b">0.374</text>
<line x1="1000.00" y1="70" x2="1000.00" y2="590" stroke="#e3e3e3" stroke-width="1" />
<text x="1000.00" y="616" text-anchor="middle" font-size="15" font-family="Arial, sans-serif" fill="#4b4b4b">0.468</text>
<line x1="110" y1="590.00" x2="1000" y2="590.00" stroke="#e3e3e3" stroke-width="1" />
<text x="94" y="595.00" text-anchor="end" font-size="15" font-family="Arial, sans-serif" fill="#4b4b4b">0.805</text>
<line x1="110" y1="486.00" x2="1000" y2="486.00" stroke="#e3e3e3" stroke-width="1" />
<text x="94" y="491.00" text-anchor="end" font-size="15" font-family="Arial, sans-serif" fill="#4b4b4b">0.881</text>
<line x1="110" y1="382.00" x2="1000" y2="382.00" stroke="#e3e3e3" stroke-width="1" />
<text x="94" y="387.00" text-anchor="end" font-size="15" font-family="Arial, sans-serif" fill="#4b4b4b">0.958</text>
<line x1="110" y1="278.00" x2="1000" y2="278.00" stroke="#e3e3e3" stroke-width="1" />
<text x="94" y="283.00" text-anchor="end" font-size="15" font-family="Arial, sans-serif" fill="#4b4b4b">1.034</text>
<line x1="110" y1="174.00" x2="1000" y2="174.00" stroke="#e3e3e3" stroke-width="1" />
<text x="94" y="179.00" text-anchor="end" font-size="15" font-family="Arial, sans-serif" fill="#4b4b4b">1.110</text>
<line x1="110" y1="70.00" x2="1000" y2="70.00" stroke="#e3e3e3" stroke-width="1" />
<text x="94" y="75.00" text-anchor="end" font-size="15" font-family="Arial, sans-serif" fill="#4b4b4b">1.186</text>
<line x1="110" y1="590" x2="1000" y2="590" stroke="#1f1f1f" stroke-width="2" />
<line x1="110" y1="70" x2="110" y2="590" stroke="#1f1f1f" stroke-width="2" />
<polyline fill="none" stroke="#1f4e79" stroke-width="3" stroke-linejoin="round" stroke-linecap="round" points="110.00,93.64 110.75,137.83 111.51,147.19 112.26,152.85 113.01,156.96 113.76,160.22 114.52,162.95 115.27,165.29 116.02,167.37 116.78,169.23 117.53,170.93 118.28,172.49 119.03,173.94 119.79,175.30 120.54,176.57 121.29,177.78 122.05,178.93 122.80,180.03 123.55,181.08 124.30,182.09 125.06,183.06 125.81,184.00 126.56,184.90 127.32,185.78 128.07,186.63 128.82,187.46 129.58,188.27 130.33,189.06 131.08,189.83 131.83,190.58 132.59,191.32 133.34,192.04 134.09,192.74 134.85,193.44 135.60,194.12 136.35,194.79 137.10,195.44 137.86,196.09 138.61,196.73 139.36,197.36 140.12,197.97 140.87,198.59 141.62,199.19 142.37,199.78 143.13,200.37 143.88,200.95 144.63,201.52 145.39,202.09 146.14,202.65 146.89,203.20 147.64,203.75 148.40,204.30 149.15,204.83 149.90,205.37 150.66,205.90 151.41,206.42 152.16,206.94 152.91,207.45 153.67,207.96 154.42,208.47 155.17,208.97 155.93,209.47 156.68,209.96 157.43,210.46 158.18,210.94 158.94,211.43 159.69,211.91 160.44,212.39 161.20,212.86 161.95,213.33 162.70,213.80 163.45,214.27 164.21,214.73 164.96,215.19 165.71,215.65 166.47,216.10 167.22,216.56 167.97,217.01 168.73,217.46 169.48,217.90 170.23,218.35 170.98,218.79 171.74,219.23 172.49,219.66 173.24,220.10 174.00,220.53 174.75,220.96 175.50,221.39 176.25,221.82 177.01,222.25 177.76,222.67 178.51,223.10 179.27,223.52 180.02,223.94 180.77,224.35 181.52,224.77 182.28,225.19 183.03,225.60 183.78,226.01 184.54,226.42 185.29,226.83 186.04,227.24 186.79,227.64 187.55,228.05 188.30,228.45 189.05,228.86 189.81,229.26 190.56,229.66 191.31,230.06 192.06,230.45 192.82,230.85 193.57,231.25 194.32,231.64 195.08,232.03 195.83,232.43 196.58,232.82 197.33,233.21 198.09,233.60 198.84,233.99 199.59,234.37 200.35,234.76 201.10,235.14 201.85,235.53 202.60,235.91 203.36,236.30 204.11,236.68 204.86,237.06 205.62,237.44 206.37,237.82 207.12,238.20 207.88,238.58 208.63,238.95 209.38,239.33 210.13,239.71 210.89,240.08 211.64,240.46 212.39,240.83 213.15,241.20 213.90,241.58 214.65,241.95 215.40,242.32 216.16,242.69 216.91,243.06 217.66,243.43 218.42,243.80 219.17,244.17 219.92,244.53 220.67,244.90 221.43,245.27 222.18,245.63 222.93,246.00 223.69,246.36 224.44,246.73 225.19,247.09 225.94,247.46 226.70,247.82 227.45,248.18 228.20,248.54 228.96,248.91 229.71,249.27 230.46,249.63 231.21,249.99 231.97,250.35 232.72,250.71 233.47,251.07 234.23,251.43 234.98,251.79 235.73,252.14 236.48,252.50 237.24,252.86 237.99,253.22 238.74,253.57 239.50,253.93 240.25,254.29 241.00,254.64 241.76,255.00 242.51,255.35 243.26,255.71 244.01,256.06 244.77,256.42 245.52,256.77 246.27,257.13 247.03,257.48 247.78,257.83 248.53,258.19 249.28,258.54 250.04,258.89 250.79,259.25 251.54,259.60 252.30,259.95 253.05,260.30 253.80,260.65 254.55,261.01 255.31,261.36 256.06,261.71 256.81,262.06 257.57,262.41 258.32,262.76 259.07,263.11 259.82,263.46 260.58,263.82 261.33,264.17 262.08,264.52 262.84,264.87 263.59,265.22 264.34,265.57 265.09,265.92 265.85,266.27 266.60,266.62 267.35,266.97 268.11,267.32 268.86,267.67 269.61,268.02 270.36,268.37 271.12,268.72 271.87,269.07 272.62,269.42 273.38,269.77 274.13,270.12 274.88,270.47 275.63,270.82 276.39,271.17 277.14,271.52 277.89,271.87 278.65,272.22 279.40,272.57 280.15,272.92 280.91,273.27 281.66,273.62 282.41,273.97 283.16,274.32 283.92,274.68 284.67,275.03 285.42,275.38 286.18,275.73 286.93,276.08 287.68,276.43 288.43,276.79 289.19,277.14 289.94,277.49 290.69,277.84 291.45,278.19 292.20,278.55 292.95,278.90 293.70,279.25 294.46,279.61 295.21,279.96 295.96,280.32 296.72,280.67 297.47,281.02 298.22,281.38 298.97,281.74 299.73,282.09 300.48,282.45 301.23,282.80 301.99,283.16 302.74,283.52 303.49,283.87 304.24,284.23 305.00,284.59 305.75,284.95 306.50,285.31 307.26,285.67 308.01,286.03 308.76,286.39 309.51,286.75 310.27,287.11 311.02,287.47 311.77,287.83 312.53,288.19 313.28,288.56 314.03,288.92 314.79,289.28 315.54,289.65 316.29,290.01 317.04,290.38 317.80,290.75 318.55,291.11 319.30,291.48 320.06,291.85 320.81,292.22 321.56,292.59 322.31,292.96 323.07,293.33 323.82,293.70 324.57,294.07 325.33,294.45 326.08,294.82 326.83,295.19 327.58,295.57 328.34,295.95 329.09,296.32 329.84,296.70 330.60,297.08 331.35,297.46 332.10,297.84 332.85,298.23 333.61,298.61 334.36,298.99 335.11,299.38 335.87,299.76 336.62,300.15 337.37,300.54 338.12,300.93 338.88,301.32 339.63,301.71 340.38,302.11 341.14,302.50 341.89,302.90 342.64,303.29 343.39,303.69 344.15,304.09 344.90,304.49 345.65,304.90 346.41,305.30 347.16,305.71 347.91,306.12 348.66,306.52 349.42,306.94 350.17,307.35 350.92,307.76 351.68,308.18 352.43,308.60 353.18,309.02 353.94,309.44 354.69,309.87 355.44,310.29 356.19,310.72 356.95,311.15 357.70,311.59 358.45,312.02 359.21,312.46 359.96,312.90 360.71,313.35 361.46,313.79 362.22,314.24 362.97,314.69 363.72,315.15 364.48,315.61 365.23,316.07 365.98,316.53 366.73,317.00 367.49,317.48 368.24,317.95 368.99,318.43 369.75,318.91 370.50,319.40 371.25,319.89 372.00,320.39 372.76,320.89 373.51,321.40 374.26,321.91 375.02,322.42 375.77,322.94 376.52,323.47 377.27,324.00 378.03,324.54 378.78,325.09 379.53,325.64 380.29,326.20 381.04,326.77 381.79,327.34 382.54,327.93 383.30,328.52 384.05,329.12 384.80,329.73 385.56,330.35 386.31,330.98 387.06,331.63 387.81,332.28 388.57,332.95 389.32,333.63 390.07,334.33 390.83,335.05 391.58,335.78 392.33,336.52 393.09,337.29 393.84,338.08 394.59,338.90 395.34,339.73 396.10,340.60 396.85,341.50 397.60,342.43 398.36,343.39 399.11,344.40 399.86,345.46 400.61,346.57 401.37,347.73 402.12,348.97 402.87,350.29 403.63,351.69 404.38,353.22 405.13,354.87 405.88,356.70 406.64,358.73 407.39,361.04 408.14,363.73 408.90,366.97 409.65,371.08 410.40,376.76" />
<polyline fill="none" stroke="#b5514a" stroke-width="3" stroke-linejoin="round" stroke-linecap="round" points="110.03,105.15 111.54,149.52 113.04,159.05 114.55,164.88 116.05,169.17 117.56,172.60 119.06,175.50 120.57,178.02 122.08,180.26 123.58,182.30 125.09,184.16 126.59,185.90 128.10,187.52 129.61,189.05 131.11,190.50 132.62,191.88 134.12,193.21 135.63,194.48 137.13,195.70 138.64,196.88 140.15,198.02 141.65,199.13 143.16,200.21 144.66,201.26 146.17,202.29 147.67,203.29 149.18,204.27 150.69,205.23 152.19,206.17 153.70,207.10 155.20,208.01 156.71,208.90 158.21,209.78 159.72,210.65 161.23,211.50 162.73,212.34 164.24,213.17 165.74,213.99 167.25,214.80 168.76,215.60 170.26,216.40 171.77,217.18 173.27,217.95 174.78,218.72 176.28,219.48 177.79,220.24 179.30,220.98 180.80,221.72 182.31,222.46 183.81,223.18 185.32,223.90 186.82,224.62 188.33,225.33 189.84,226.04 191.34,226.74 192.85,227.44 194.35,228.13 195.86,228.82 197.36,229.50 198.87,230.18 200.38,230.85 201.88,231.53 203.39,232.19 204.89,232.86 206.40,233.52 207.91,234.18 209.41,234.83 210.92,235.48 212.42,236.13 213.93,236.78 215.43,237.42 216.94,238.06 218.45,238.69 219.95,239.33 221.46,239.96 222.96,240.59 224.47,241.21 225.97,241.84 227.48,242.46 228.99,243.08 230.49,243.70 232.00,244.31 233.50,244.93 235.01,245.54 236.51,246.15 238.02,246.75 239.53,247.36 241.03,247.96 242.54,248.56 244.04,249.16 245.55,249.76 247.06,250.36 248.56,250.95 250.07,251.55 251.57,252.14 253.08,252.73 254.58,253.32 256.09,253.90 257.60,254.49 259.10,255.07 260.61,255.66 262.11,256.24 263.62,256.82 265.12,257.40 266.63,257.98 268.14,258.55 269.64,259.13 271.15,259.70 272.65,260.27 274.16,260.85 275.66,261.42 277.17,261.99 278.68,262.55 280.18,263.12 281.69,263.69 283.19,264.25 284.70,264.82 286.21,265.38 287.71,265.94 289.22,266.51 290.72,267.07 292.23,267.63 293.73,268.19 295.24,268.74 296.75,269.30 298.25,269.86 299.76,270.41 301.26,270.97 302.77,271.52 304.27,272.08 305.78,272.63 307.29,273.18 308.79,273.73 310.30,274.28 311.80,274.83 313.31,275.38 314.82,275.93 316.32,276.48 317.83,277.02 319.33,277.57 320.84,278.12 322.34,278.66 323.85,279.21 325.36,279.75 326.86,280.29 328.37,280.84 329.87,281.38 331.38,281.92 332.88,282.46 334.39,283.00 335.90,283.54 337.40,284.08 338.91,284.62 340.41,285.16 341.92,285.70 343.42,286.24 344.93,286.78 346.44,287.31 347.94,287.85 349.45,288.39 350.95,288.92 352.46,289.46 353.97,289.99 355.47,290.53 356.98,291.06 358.48,291.60 359.99,292.13 361.49,292.66 363.00,293.20 364.51,293.73 366.01,294.26 367.52,294.79 369.02,295.32 370.53,295.86 372.03,296.39 373.54,296.92 375.05,297.45 376.55,297.98 378.06,298.51 379.56,299.04 381.07,299.57 382.57,300.10 384.08,300.63 385.59,301.16 387.09,301.69 388.60,302.21 390.10,302.74 391.61,303.27 393.12,303.80 394.62,304.33 396.13,304.85 397.63,305.38 399.14,305.91 400.64,306.44 402.15,306.96 403.66,307.49 405.16,308.02 406.67,308.54 408.17,309.07 409.68,309.60 411.18,310.12 412.69,310.65 414.20,311.18 415.70,311.70 417.21,312.23 418.71,312.76 420.22,313.28 421.72,313.81 423.23,314.34 424.74,314.86 426.24,315.39 427.75,315.91 429.25,316.44 430.76,316.97 432.27,317.49 433.77,318.02 435.28,318.54 436.78,319.07 438.29,319.60 439.79,320.12 441.30,320.65 442.81,321.18 444.31,321.70 445.82,322.23 447.32,322.76 448.83,323.28 450.33,323.81 451.84,324.34 453.35,324.86 454.85,325.39 456.36,325.92 457.86,326.45 459.37,326.97 460.87,327.50 462.38,328.03 463.89,328.56 465.39,329.09 466.90,329.61 468.40,330.14 469.91,330.67 471.42,331.20 472.92,331.73 474.43,332.26 475.93,332.79 477.44,333.32 478.94,333.85 480.45,334.38 481.96,334.91 483.46,335.44 484.97,335.98 486.47,336.51 487.98,337.04 489.48,337.57 490.99,338.11 492.50,338.64 494.00,339.17 495.51,339.71 497.01,340.24 498.52,340.78 500.03,341.31 501.53,341.85 503.04,342.38 504.54,342.92 506.05,343.46 507.55,343.99 509.06,344.53 510.57,345.07 512.07,345.61 513.58,346.15 515.08,346.69 516.59,347.23 518.09,347.77 519.60,348.31 521.11,348.85 522.61,349.40 524.12,349.94 525.62,350.48 527.13,351.03 528.63,351.57 530.14,352.12 531.65,352.67 533.15,353.21 534.66,353.76 536.16,354.31 537.67,354.86 539.18,355.41 540.68,355.96 542.19,356.51 543.69,357.07 545.20,357.62 546.70,358.17 548.21,358.73 549.72,359.29 551.22,359.84 552.73,360.40 554.23,360.96 555.74,361.52 557.24,362.08 558.75,362.64 560.26,363.21 561.76,363.77 563.27,364.34 564.77,364.90 566.28,365.47 567.78,366.04 569.29,366.61 570.80,367.18 572.30,367.76 573.81,368.33 575.31,368.91 576.82,369.48 578.33,370.06 579.83,370.64 581.34,371.22 582.84,371.81 584.35,372.39 585.85,372.98 587.36,373.57 588.87,374.16 590.37,374.75 591.88,375.34 593.38,375.94 594.89,376.54 596.39,377.14 597.90,377.74 599.41,378.34 600.91,378.95 602.42,379.55 603.92,380.16 605.43,380.78 606.93,381.39 608.44,382.01 609.95,382.63 611.45,383.25 612.96,383.88 614.46,384.51 615.97,385.14 617.48,385.77 618.98,386.41 620.49,387.05 621.99,387.70 623.50,388.34 625.00,389.00 626.51,389.65 628.02,390.31 629.52,390.97 631.03,391.64 632.53,392.31 634.04,392.99 635.54,393.67 637.05,394.35 638.56,395.04 640.06,395.74 641.57,396.44 643.07,397.15 644.58,397.86 646.08,398.58 647.59,399.31 649.10,400.04 650.60,400.78 652.11,401.53 653.61,402.28 655.12,403.05 656.63,403.82 658.13,404.60 659.64,405.39 661.14,406.19 662.65,407.00 664.15,407.83 665.66,408.66 667.17,409.51 668.67,410.38 670.18,411.25 671.68,412.15 673.19,413.06 674.69,413.99 676.20,414.94 677.71,415.91 679.21,416.90 680.72,417.92 682.22,418.97 683.73,420.04 685.24,421.15 686.74,422.30 688.25,423.49 689.75,424.73 691.26,426.02 692.76,427.37 694.27,428.78 695.78,430.28 697.28,431.87 698.79,433.57 700.29,435.41 701.80,437.42 703.30,439.63 704.81,442.12 706.32,445.00 707.82,448.42 709.33,452.70 710.83,458.57" />
<polyline fill="none" stroke="#4f7c43" stroke-width="3" stroke-linejoin="round" stroke-linecap="round" points="110.06,122.68 112.29,167.18 114.52,176.84 116.75,182.80 118.98,187.22 121.21,190.78 123.44,193.81 125.67,196.46 127.90,198.84 130.13,201.00 132.36,203.01 134.59,204.87 136.82,206.63 139.05,208.29 141.28,209.88 143.52,211.39 145.75,212.85 147.98,214.25 150.21,215.61 152.44,216.92 154.67,218.20 156.90,219.45 159.13,220.66 161.36,221.85 163.59,223.01 165.82,224.15 168.05,225.27 170.28,226.36 172.51,227.44 174.74,228.50 176.97,229.55 179.20,230.58 181.43,231.60 183.66,232.60 185.89,233.59 188.12,234.57 190.35,235.54 192.58,236.50 194.82,237.45 197.05,238.39 199.28,239.33 201.51,240.25 203.74,241.16 205.97,242.07 208.20,242.97 210.43,243.87 212.66,244.76 214.89,245.64 217.12,246.51 219.35,247.38 221.58,248.25 223.81,249.10 226.04,249.96 228.27,250.81 230.50,251.65 232.73,252.49 234.96,253.33 237.19,254.16 239.42,254.99 241.65,255.81 243.88,256.63 246.12,257.44 248.35,258.26 250.58,259.07 252.81,259.87 255.04,260.67 257.27,261.47 259.50,262.27 261.73,263.07 263.96,263.86 266.19,264.65 268.42,265.43 270.65,266.21 272.88,267.00 275.11,267.77 277.34,268.55 279.57,269.32 281.80,270.10 284.03,270.87 286.26,271.63 288.49,272.40 290.72,273.16 292.95,273.93 295.18,274.69 297.41,275.44 299.65,276.20 301.88,276.96 304.11,277.71 306.34,278.46 308.57,279.21 310.80,279.96 313.03,280.71 315.26,281.45 317.49,282.20 319.72,282.94 321.95,283.68 324.18,284.42 326.41,285.16 328.64,285.90 330.87,286.63 333.10,287.37 335.33,288.10 337.56,288.84 339.79,289.57 342.02,290.30 344.25,291.03 346.48,291.76 348.71,292.48 350.95,293.21 353.18,293.94 355.41,294.66 357.64,295.39 359.87,296.11 362.10,296.83 364.33,297.55 366.56,298.27 368.79,298.99 371.02,299.71 373.25,300.43 375.48,301.15 377.71,301.86 379.94,302.58 382.17,303.30 384.40,304.01 386.63,304.73 388.86,305.44 391.09,306.15 393.32,306.86 395.55,307.58 397.78,308.29 400.01,309.00 402.25,309.71 404.48,310.42 406.71,311.13 408.94,311.83 411.17,312.54 413.40,313.25 415.63,313.96 417.86,314.66 420.09,315.37 422.32,316.08 424.55,316.78 426.78,317.49 429.01,318.19 431.24,318.89 433.47,319.60 435.70,320.30 437.93,321.00 440.16,321.71 442.39,322.41 444.62,323.11 446.85,323.81 449.08,324.52 451.31,325.22 453.54,325.92 455.78,326.62 458.01,327.32 460.24,328.02 462.47,328.72 464.70,329.42 466.93,330.12 469.16,330.82 471.39,331.52 473.62,332.22 475.85,332.92 478.08,333.61 480.31,334.31 482.54,335.01 484.77,335.71 487.00,336.41 489.23,337.11 491.46,337.80 493.69,338.50 495.92,339.20 498.15,339.90 500.38,340.60 502.61,341.29 504.84,341.99 507.08,342.69 509.31,343.39 511.54,344.08 513.77,344.78 516.00,345.48 518.23,346.18 520.46,346.88 522.69,347.57 524.92,348.27 527.15,348.97 529.38,349.67 531.61,350.36 533.84,351.06 536.07,351.76 538.30,352.46 540.53,353.16 542.76,353.85 544.99,354.55 547.22,355.25 549.45,355.95 551.68,356.65 553.91,357.35 556.14,358.05 558.38,358.74 560.61,359.44 562.84,360.14 565.07,360.84 567.30,361.54 569.53,362.24 571.76,362.94 573.99,363.64 576.22,364.34 578.45,365.05 580.68,365.75 582.91,366.45 585.14,367.15 587.37,367.85 589.60,368.55 591.83,369.26 594.06,369.96 596.29,370.66 598.52,371.37 600.75,372.07 602.98,372.77 605.21,373.48 607.44,374.18 609.67,374.89 611.91,375.59 614.14,376.30 616.37,377.01 618.60,377.71 620.83,378.42 623.06,379.13 625.29,379.84 627.52,380.54 629.75,381.25 631.98,381.96 634.21,382.67 636.44,383.38 638.67,384.09 640.90,384.81 643.13,385.52 645.36,386.23 647.59,386.94 649.82,387.66 652.05,388.37 654.28,389.09 656.51,389.80 658.74,390.52 660.97,391.23 663.21,391.95 665.44,392.67 667.67,393.39 669.90,394.11 672.13,394.83 674.36,395.55 676.59,396.27 678.82,396.99 681.05,397.71 683.28,398.44 685.51,399.16 687.74,399.89 689.97,400.61 692.20,401.34 694.43,402.07 696.66,402.80 698.89,403.53 701.12,404.26 703.35,404.99 705.58,405.72 707.81,406.45 710.04,407.19 712.27,407.92 714.51,408.66 716.74,409.39 718.97,410.13 721.20,410.87 723.43,411.61 725.66,412.35 727.89,413.10 730.12,413.84 732.35,414.58 734.58,415.33 736.81,416.08 739.04,416.83 741.27,417.58 743.50,418.33 745.73,419.08 747.96,419.83 750.19,420.59 752.42,421.34 754.65,422.10 756.88,422.86 759.11,423.62 761.34,424.38 763.57,425.15 765.80,425.91 768.04,426.68 770.27,427.45 772.50,428.22 774.73,428.99 776.96,429.77 779.19,430.54 781.42,431.32 783.65,432.10 785.88,432.88 788.11,433.67 790.34,434.45 792.57,435.24 794.80,436.03 797.03,436.82 799.26,437.61 801.49,438.41 803.72,439.21 805.95,440.01 808.18,440.81 810.41,441.62 812.64,442.43 814.87,443.24 817.10,444.05 819.34,444.87 821.57,445.69 823.80,446.51 826.03,447.34 828.26,448.17 830.49,449.00 832.72,449.83 834.95,450.67 837.18,451.51 839.41,452.36 841.64,453.21 843.87,454.06 846.10,454.91 848.33,455.77 850.56,456.64 852.79,457.51 855.02,458.38 857.25,459.25 859.48,460.14 861.71,461.02 863.94,461.91 866.17,462.81 868.40,463.71 870.64,464.62 872.87,465.53 875.10,466.45 877.33,467.37 879.56,468.30 881.79,469.24 884.02,470.18 886.25,471.13 888.48,472.08 890.71,473.05 892.94,474.02 895.17,475.00 897.40,475.99 899.63,476.98 901.86,477.99 904.09,479.01 906.32,480.03 908.55,481.07 910.78,482.11 913.01,483.17 915.24,484.24 917.47,485.32 919.70,486.42 921.93,487.53 924.17,488.65 926.40,489.79 928.63,490.95 930.86,492.12 933.09,493.31 935.32,494.52 937.55,495.76 939.78,497.01 942.01,498.29 944.24,499.60 946.47,500.93 948.70,502.29 950.93,503.69 953.16,505.12 955.39,506.58 957.62,508.09 959.85,509.65 962.08,511.25 964.31,512.91 966.54,514.64 968.77,516.43 971.00,518.31 973.23,520.27 975.47,522.33 977.70,524.52 979.93,526.85 982.16,529.34 984.39,532.04 986.62,534.98 988.85,538.25 991.08,541.93 993.31,546.18 995.54,551.25 997.77,557.62 1000.00,566.36" />
<rect x="750" y="80" width="250" height="106" rx="8" fill="#ffffff" fill-opacity="0.92" stroke="#cccccc" />
<line x1="764" y1="102" x2="804" y2="102" stroke="#1f4e79" stroke-width="3" />
<text x="814" y="107" font-size="15" font-family="Arial, sans-serif" fill="#303030">0.5 M</text>
<line x1="764" y1="130" x2="804" y2="130" stroke="#b5514a" stroke-width="3" />
<text x="814" y="135" font-size="15" font-family="Arial, sans-serif" fill="#303030">1.0 M</text>
<line x1="764" y1="158" x2="804" y2="158" stroke="#4f7c43" stroke-width="3" />
<text x="814" y="163" font-size="15" font-family="Arial, sans-serif" fill="#303030">3.0 M</text>
<text x="520.0" y="656" text-anchor="middle" font-size="18" font-family="Arial, sans-serif" fill="#1f1f1f">Current density (A cm^-2)</text>
<text x="28" y="340.0" text-anchor="middle" font-size="18" font-family="Arial, sans-serif" fill="#1f1f1f" transform="rotate(-90 28 340.0)">Cell voltage (V)</text>
</svg>